G04 #@! TF.GenerationSoftware,KiCad,Pcbnew,9.0.3*
G04 #@! TF.CreationDate,2025-08-08T01:44:59-07:00*
G04 #@! TF.ProjectId,Untitled,556e7469-746c-4656-942e-6b696361645f,rev?*
G04 #@! TF.SameCoordinates,Original*
G04 #@! TF.FileFunction,Copper,L1,Top*
G04 #@! TF.FilePolarity,Positive*
%FSLAX46Y46*%
G04 Gerber Fmt 4.6, Leading zero omitted, Abs format (unit mm)*
G04 Created by KiCad (PCBNEW 9.0.3) date 2025-08-08 01:44:59*
%MOMM*%
%LPD*%
G01*
G04 APERTURE LIST*
G04 Aperture macros list*
%AMRoundRect*
0 Rectangle with rounded corners*
0 $1 Rounding radius*
0 $2 $3 $4 $5 $6 $7 $8 $9 X,Y pos of 4 corners*
0 Add a 4 corners polygon primitive as box body*
4,1,4,$2,$3,$4,$5,$6,$7,$8,$9,$2,$3,0*
0 Add four circle primitives for the rounded corners*
1,1,$1+$1,$2,$3*
1,1,$1+$1,$4,$5*
1,1,$1+$1,$6,$7*
1,1,$1+$1,$8,$9*
0 Add four rect primitives between the rounded corners*
20,1,$1+$1,$2,$3,$4,$5,0*
20,1,$1+$1,$4,$5,$6,$7,0*
20,1,$1+$1,$6,$7,$8,$9,0*
20,1,$1+$1,$8,$9,$2,$3,0*%
G04 Aperture macros list end*
G04 #@! TA.AperFunction,ComponentPad*
%ADD10R,1.750000X3.800000*%
G04 #@! TD*
G04 #@! TA.AperFunction,ComponentPad*
%ADD11R,3.800000X1.750000*%
G04 #@! TD*
G04 #@! TA.AperFunction,ComponentPad*
%ADD12C,1.600000*%
G04 #@! TD*
G04 #@! TA.AperFunction,ComponentPad*
%ADD13RoundRect,0.250000X0.550000X-0.550000X0.550000X0.550000X-0.550000X0.550000X-0.550000X-0.550000X0*%
G04 #@! TD*
G04 #@! TA.AperFunction,ComponentPad*
%ADD14C,1.308000*%
G04 #@! TD*
G04 #@! TA.AperFunction,ComponentPad*
%ADD15R,1.397000X1.397000*%
G04 #@! TD*
G04 #@! TA.AperFunction,ComponentPad*
%ADD16C,1.397000*%
G04 #@! TD*
G04 #@! TA.AperFunction,ComponentPad*
%ADD17R,1.371600X1.371600*%
G04 #@! TD*
G04 #@! TA.AperFunction,ComponentPad*
%ADD18C,1.371600*%
G04 #@! TD*
G04 #@! TA.AperFunction,SMDPad,CuDef*
%ADD19R,2.100000X1.400000*%
G04 #@! TD*
G04 #@! TA.AperFunction,ComponentPad*
%ADD20R,2.055000X2.055000*%
G04 #@! TD*
G04 #@! TA.AperFunction,ComponentPad*
%ADD21C,2.055000*%
G04 #@! TD*
G04 #@! TA.AperFunction,ComponentPad*
%ADD22C,1.007000*%
G04 #@! TD*
G04 #@! TA.AperFunction,ComponentPad*
%ADD23R,1.800000X1.800000*%
G04 #@! TD*
G04 #@! TA.AperFunction,ComponentPad*
%ADD24C,1.800000*%
G04 #@! TD*
G04 #@! TA.AperFunction,ComponentPad*
%ADD25R,1.270000X1.270000*%
G04 #@! TD*
G04 #@! TA.AperFunction,ComponentPad*
%ADD26C,1.270000*%
G04 #@! TD*
G04 #@! TA.AperFunction,ComponentPad*
%ADD27R,1.219200X1.219200*%
G04 #@! TD*
G04 #@! TA.AperFunction,ComponentPad*
%ADD28C,1.219200*%
G04 #@! TD*
G04 #@! TA.AperFunction,ViaPad*
%ADD29C,0.600000*%
G04 #@! TD*
G04 #@! TA.AperFunction,Conductor*
%ADD30C,0.200000*%
G04 #@! TD*
G04 #@! TA.AperFunction,Conductor*
%ADD31C,0.127000*%
G04 #@! TD*
G04 #@! TA.AperFunction,Conductor*
%ADD32C,0.150000*%
G04 #@! TD*
G04 APERTURE END LIST*
D10*
X183723000Y-103762000D03*
D11*
X186823001Y-98762000D03*
D10*
X189923000Y-103762000D03*
D12*
X101745000Y-100380000D03*
X104285000Y-100380000D03*
X106825000Y-100380000D03*
X109365000Y-100380000D03*
X111905000Y-100380000D03*
X114445000Y-100380000D03*
X116985000Y-100380000D03*
X119525000Y-100380000D03*
X122065000Y-100380000D03*
X124605000Y-100380000D03*
X127145000Y-100380000D03*
X129685000Y-100380000D03*
X132225000Y-100380000D03*
X134765000Y-100380000D03*
X134765000Y-108000000D03*
X132225000Y-108000000D03*
X129685000Y-108000000D03*
X127145000Y-108000000D03*
X124605000Y-108000000D03*
X122065000Y-108000000D03*
X119525000Y-108000000D03*
X116985000Y-108000000D03*
X114445000Y-108000000D03*
X111905000Y-108000000D03*
X109365000Y-108000000D03*
X106825000Y-108000000D03*
X104285000Y-108000000D03*
D13*
X101745000Y-108000000D03*
D14*
X135623000Y-94462000D03*
X133623000Y-94462000D03*
X131623000Y-94462000D03*
X129623000Y-94462000D03*
X127623000Y-94462000D03*
X125623000Y-94462000D03*
X123623000Y-94462000D03*
D15*
X139570000Y-107500000D03*
D16*
X151000000Y-107500000D03*
D15*
X139570000Y-102000000D03*
D16*
X151000000Y-102000000D03*
X186463000Y-94126000D03*
X188963000Y-94126000D03*
X191463000Y-94126000D03*
D17*
X139605000Y-114380000D03*
D18*
X144685000Y-114380000D03*
D19*
X184119000Y-111912000D03*
X184119000Y-116412000D03*
X193219000Y-111912000D03*
X193219000Y-116412000D03*
D20*
X176145000Y-99980000D03*
D21*
X176145000Y-97430000D03*
X176145000Y-94880000D03*
D22*
X94825000Y-102254000D03*
X94825000Y-107134000D03*
D23*
X150605000Y-94880000D03*
D24*
X153145000Y-94880000D03*
D14*
X124825000Y-114700000D03*
X126825000Y-114700000D03*
X128825000Y-114700000D03*
X130825000Y-114700000D03*
X132825000Y-114700000D03*
X134825000Y-114700000D03*
D25*
X93745000Y-94500000D03*
D26*
X96285000Y-94500000D03*
D25*
X93730000Y-114954000D03*
D26*
X96270000Y-114954000D03*
D14*
X115579750Y-94443750D03*
X117579750Y-94443750D03*
X119579750Y-94443750D03*
D23*
X150605000Y-113880000D03*
D24*
X153145000Y-113880000D03*
D14*
X101325000Y-114634000D03*
X103325000Y-114634000D03*
X105325000Y-114634000D03*
X107325000Y-114634000D03*
X109325000Y-114634000D03*
X111325000Y-114634000D03*
X113325000Y-114634000D03*
X115325000Y-114634000D03*
X111523000Y-94462000D03*
X109523000Y-94462000D03*
X107523000Y-94462000D03*
X105523000Y-94462000D03*
X103523000Y-94462000D03*
X101523000Y-94462000D03*
D27*
X141638400Y-94500000D03*
D28*
X143645000Y-94500000D03*
D15*
X176145000Y-116877000D03*
D16*
X176145000Y-105447000D03*
D29*
X95173000Y-117287000D03*
D30*
X183723000Y-103762000D02*
X180898000Y-103762000D01*
X180898000Y-103762000D02*
X179298000Y-102162000D01*
X188963000Y-94126000D02*
X188963000Y-95447000D01*
X188963000Y-95447000D02*
X187948000Y-96462000D01*
X183623000Y-96462000D02*
X179298000Y-100787000D01*
X187948000Y-96462000D02*
X183623000Y-96462000D01*
X179298000Y-100787000D02*
X179298000Y-102162000D01*
X183828000Y-103442000D02*
X183848000Y-103462000D01*
X101523000Y-94462000D02*
X101523000Y-100158000D01*
X101523000Y-100158000D02*
X101745000Y-100380000D01*
D31*
X127623000Y-94462000D02*
X127623000Y-99902000D01*
X127623000Y-99902000D02*
X127145000Y-100380000D01*
X129685000Y-100380000D02*
X129685000Y-94524000D01*
X129685000Y-94524000D02*
X129623000Y-94462000D01*
X129623000Y-100318000D02*
X129685000Y-100380000D01*
D30*
X131623000Y-94462000D02*
X132225000Y-95064000D01*
X132225000Y-95064000D02*
X132225000Y-100380000D01*
X132223000Y-100378000D02*
X132225000Y-100380000D01*
X117579750Y-99785250D02*
X116985000Y-100380000D01*
D32*
X95198000Y-117262000D02*
X170073000Y-117262000D01*
D30*
X176160000Y-105462000D02*
X176145000Y-105447000D01*
X178948000Y-105462000D02*
X176160000Y-105462000D01*
X184119000Y-111912000D02*
X184119000Y-110633000D01*
X184119000Y-110633000D02*
X178948000Y-105462000D01*
D32*
X179873000Y-115587000D02*
X180698000Y-116412000D01*
X171748000Y-115587000D02*
X179873000Y-115587000D01*
X170073000Y-117262000D02*
X171748000Y-115587000D01*
X180698000Y-116412000D02*
X184119000Y-116412000D01*
X95173000Y-117287000D02*
X95198000Y-117262000D01*
D30*
X110323000Y-114388663D02*
X112149663Y-112562000D01*
X96270000Y-108579000D02*
X96270000Y-114954000D01*
X112149663Y-112562000D02*
X120123000Y-112562000D01*
X94825000Y-107134000D02*
X96270000Y-108579000D01*
X97478000Y-116162000D02*
X109423000Y-116162000D01*
X122065000Y-110620000D02*
X122065000Y-108000000D01*
X96270000Y-114954000D02*
X97478000Y-116162000D01*
X120123000Y-112562000D02*
X122065000Y-110620000D01*
X110323000Y-115262000D02*
X110323000Y-114388663D01*
X109423000Y-116162000D02*
X110323000Y-115262000D01*
X118859000Y-102254000D02*
X124605000Y-108000000D01*
X94825000Y-102254000D02*
X118859000Y-102254000D01*
X96285000Y-100794000D02*
X96285000Y-94500000D01*
X94825000Y-102254000D02*
X96285000Y-100794000D01*
X150605000Y-94880000D02*
X146690000Y-94880000D01*
X146690000Y-94880000D02*
X139570000Y-102000000D01*
X125623000Y-99362000D02*
X124605000Y-100380000D01*
X125623000Y-94462000D02*
X125623000Y-99362000D01*
X177855000Y-99980000D02*
X183709000Y-94126000D01*
X176145000Y-99980000D02*
X177855000Y-99980000D01*
X183709000Y-94126000D02*
X186463000Y-94126000D01*
X106825000Y-111134000D02*
X106825000Y-108000000D01*
X103325000Y-114634000D02*
X106825000Y-111134000D01*
X101325000Y-114634000D02*
X104285000Y-111674000D01*
X104285000Y-111674000D02*
X104285000Y-108000000D01*
X107325000Y-114634000D02*
X111905000Y-110054000D01*
X111905000Y-110054000D02*
X111905000Y-108000000D01*
X111325000Y-114634000D02*
X112947000Y-113012000D01*
X112947000Y-113012000D02*
X122133000Y-113012000D01*
X122133000Y-113012000D02*
X127145000Y-108000000D01*
X109365000Y-110594000D02*
X109365000Y-108000000D01*
X105325000Y-114634000D02*
X109365000Y-110594000D01*
X114445000Y-109514000D02*
X114445000Y-108000000D01*
X109325000Y-114634000D02*
X114445000Y-109514000D01*
X116141000Y-113818000D02*
X126407000Y-113818000D01*
X126407000Y-113818000D02*
X132225000Y-108000000D01*
X115325000Y-114634000D02*
X116141000Y-113818000D01*
X114469000Y-113490000D02*
X124195000Y-113490000D01*
X113325000Y-114634000D02*
X114469000Y-113490000D01*
X124195000Y-113490000D02*
X129685000Y-108000000D01*
X133623000Y-94462000D02*
X134765000Y-95604000D01*
X134765000Y-95604000D02*
X134765000Y-100380000D01*
X135623000Y-94462000D02*
X136277000Y-95116000D01*
X136277000Y-95116000D02*
X136277000Y-106488000D01*
X136277000Y-106488000D02*
X134765000Y-108000000D01*
X103523000Y-94462000D02*
X104285000Y-95224000D01*
X104285000Y-95224000D02*
X104285000Y-100380000D01*
X111905000Y-96844000D02*
X111905000Y-100380000D01*
X109523000Y-94462000D02*
X111905000Y-96844000D01*
X111523000Y-94462000D02*
X114445000Y-97384000D01*
X114445000Y-97384000D02*
X114445000Y-100380000D01*
X106825000Y-95764000D02*
X106825000Y-100380000D01*
X105523000Y-94462000D02*
X106825000Y-95764000D01*
X109365000Y-96304000D02*
X109365000Y-100380000D01*
X107523000Y-94462000D02*
X109365000Y-96304000D01*
X125707000Y-115582000D02*
X124825000Y-114700000D01*
X143483000Y-115582000D02*
X125707000Y-115582000D01*
X144685000Y-114380000D02*
X143483000Y-115582000D01*
X139605000Y-114380000D02*
X142823000Y-111162000D01*
X157713164Y-114662000D02*
X179248000Y-114662000D01*
X142823000Y-111162000D02*
X154213164Y-111162000D01*
X154213164Y-111162000D02*
X157713164Y-114662000D01*
X181998000Y-111912000D02*
X184119000Y-111912000D01*
X179248000Y-114662000D02*
X181998000Y-111912000D01*
G04 #@! TA.AperFunction,Conductor*
G36*
X119125000Y-108052661D02*
G01*
X119152259Y-108154394D01*
X119204920Y-108245606D01*
X119279394Y-108320080D01*
X119370606Y-108372741D01*
X119472339Y-108400000D01*
X119478553Y-108400000D01*
X118799076Y-109079474D01*
X118843650Y-109111859D01*
X119025968Y-109204755D01*
X119220582Y-109267990D01*
X119422683Y-109300000D01*
X119627317Y-109300000D01*
X119829417Y-109267990D01*
X120024031Y-109204755D01*
X120206349Y-109111859D01*
X120250921Y-109079474D01*
X119571447Y-108400000D01*
X119577661Y-108400000D01*
X119679394Y-108372741D01*
X119770606Y-108320080D01*
X119845080Y-108245606D01*
X119897741Y-108154394D01*
X119925000Y-108052661D01*
X119925000Y-108046447D01*
X120604474Y-108725921D01*
X120636861Y-108681347D01*
X120636861Y-108681346D01*
X120684234Y-108588371D01*
X120732208Y-108537575D01*
X120800028Y-108520779D01*
X120866164Y-108543316D01*
X120905203Y-108588369D01*
X120952713Y-108681611D01*
X121073028Y-108847213D01*
X121073034Y-108847219D01*
X121217781Y-108991966D01*
X121383390Y-109112287D01*
X121396793Y-109119116D01*
X121447589Y-109167088D01*
X121464500Y-109229601D01*
X121464500Y-110319902D01*
X121444815Y-110386941D01*
X121428181Y-110407583D01*
X119910584Y-111925181D01*
X119849261Y-111958666D01*
X119822903Y-111961500D01*
X113146097Y-111961500D01*
X113079058Y-111941815D01*
X113033303Y-111889011D01*
X113023359Y-111819853D01*
X113052384Y-111756297D01*
X113058416Y-111749819D01*
X113455812Y-111352423D01*
X114803506Y-110004727D01*
X114803511Y-110004724D01*
X114813714Y-109994520D01*
X114813716Y-109994520D01*
X114925520Y-109882716D01*
X115004577Y-109745784D01*
X115045500Y-109593057D01*
X115045500Y-109229601D01*
X115065185Y-109162562D01*
X115113206Y-109119116D01*
X115126610Y-109112287D01*
X115292219Y-108991966D01*
X115436966Y-108847219D01*
X115436968Y-108847215D01*
X115436971Y-108847213D01*
X115557284Y-108681614D01*
X115557286Y-108681611D01*
X115557287Y-108681610D01*
X115604516Y-108588917D01*
X115652489Y-108538123D01*
X115720310Y-108521328D01*
X115786445Y-108543865D01*
X115825483Y-108588917D01*
X115852682Y-108642297D01*
X115872715Y-108681614D01*
X115993028Y-108847213D01*
X116137786Y-108991971D01*
X116258226Y-109079474D01*
X116303390Y-109112287D01*
X116384499Y-109153614D01*
X116485776Y-109205218D01*
X116485778Y-109205218D01*
X116485781Y-109205220D01*
X116576856Y-109234812D01*
X116680465Y-109268477D01*
X116781557Y-109284488D01*
X116882648Y-109300500D01*
X116882649Y-109300500D01*
X117087351Y-109300500D01*
X117087352Y-109300500D01*
X117289534Y-109268477D01*
X117484219Y-109205220D01*
X117666610Y-109112287D01*
X117795482Y-109018657D01*
X117832213Y-108991971D01*
X117832215Y-108991968D01*
X117832219Y-108991966D01*
X117976966Y-108847219D01*
X117976968Y-108847215D01*
X117976971Y-108847213D01*
X118081894Y-108702797D01*
X118097287Y-108681610D01*
X118144795Y-108588369D01*
X118192769Y-108537573D01*
X118260590Y-108520778D01*
X118326725Y-108543315D01*
X118365765Y-108588369D01*
X118413141Y-108681350D01*
X118413147Y-108681359D01*
X118445523Y-108725921D01*
X118445524Y-108725922D01*
X119125000Y-108046446D01*
X119125000Y-108052661D01*
G37*
G04 #@! TD.AperFunction*
G04 #@! TA.AperFunction,Conductor*
G36*
X116585000Y-100432661D02*
G01*
X116612259Y-100534394D01*
X116664920Y-100625606D01*
X116739394Y-100700080D01*
X116830606Y-100752741D01*
X116932339Y-100780000D01*
X116938553Y-100780000D01*
X116259076Y-101459474D01*
X116263562Y-101516463D01*
X116262797Y-101516523D01*
X116266027Y-101554126D01*
X116233421Y-101615921D01*
X116172582Y-101650278D01*
X116144497Y-101653500D01*
X115286353Y-101653500D01*
X115219314Y-101633815D01*
X115173559Y-101581011D01*
X115163615Y-101511853D01*
X115192640Y-101448297D01*
X115213465Y-101429183D01*
X115292219Y-101371966D01*
X115436966Y-101227219D01*
X115436968Y-101227215D01*
X115436971Y-101227213D01*
X115557286Y-101061611D01*
X115557415Y-101061359D01*
X115604795Y-100968369D01*
X115652769Y-100917573D01*
X115720590Y-100900778D01*
X115786725Y-100923315D01*
X115825765Y-100968369D01*
X115873141Y-101061350D01*
X115873147Y-101061359D01*
X115905523Y-101105921D01*
X115905524Y-101105922D01*
X116585000Y-100426446D01*
X116585000Y-100432661D01*
G37*
G04 #@! TD.AperFunction*
G04 #@! TA.AperFunction,Conductor*
G36*
X118064474Y-101105921D02*
G01*
X118096861Y-101061347D01*
X118096861Y-101061346D01*
X118144234Y-100968371D01*
X118192208Y-100917575D01*
X118260028Y-100900779D01*
X118326164Y-100923316D01*
X118365203Y-100968369D01*
X118412713Y-101061611D01*
X118533028Y-101227213D01*
X118533034Y-101227219D01*
X118677781Y-101371966D01*
X118756532Y-101429182D01*
X118799198Y-101484511D01*
X118805177Y-101554124D01*
X118772572Y-101615920D01*
X118711734Y-101650277D01*
X118683647Y-101653500D01*
X117825501Y-101653500D01*
X117758462Y-101633815D01*
X117712707Y-101581011D01*
X117702763Y-101511853D01*
X117707640Y-101501173D01*
X117710921Y-101459474D01*
X117031447Y-100780000D01*
X117037661Y-100780000D01*
X117139394Y-100752741D01*
X117230606Y-100700080D01*
X117305080Y-100625606D01*
X117357741Y-100534394D01*
X117385000Y-100432661D01*
X117385000Y-100426447D01*
X118064474Y-101105921D01*
G37*
G04 #@! TD.AperFunction*
G04 #@! TA.AperFunction,Conductor*
G36*
X199162630Y-91318025D02*
G01*
X199216886Y-91326618D01*
X199253777Y-91338605D01*
X199293910Y-91359054D01*
X199325296Y-91381858D01*
X199357141Y-91413703D01*
X199379945Y-91445089D01*
X199400394Y-91485222D01*
X199412382Y-91522118D01*
X199420973Y-91576357D01*
X199422500Y-91595756D01*
X199422500Y-118246243D01*
X199420973Y-118265640D01*
X199420973Y-118265642D01*
X199412382Y-118319881D01*
X199400394Y-118356777D01*
X199379945Y-118396910D01*
X199357141Y-118428296D01*
X199325296Y-118460141D01*
X199293910Y-118482945D01*
X199253777Y-118503394D01*
X199216881Y-118515382D01*
X199173732Y-118522216D01*
X199162640Y-118523973D01*
X199143243Y-118525500D01*
X90634757Y-118525500D01*
X90615359Y-118523973D01*
X90561119Y-118515382D01*
X90524222Y-118503394D01*
X90484089Y-118482945D01*
X90452703Y-118460141D01*
X90420858Y-118428296D01*
X90398054Y-118396910D01*
X90377605Y-118356777D01*
X90365618Y-118319886D01*
X90357025Y-118265630D01*
X90355500Y-118246243D01*
X90355500Y-114271155D01*
X92595000Y-114271155D01*
X92595000Y-114704000D01*
X93441184Y-114704000D01*
X93425124Y-114720060D01*
X93374964Y-114806939D01*
X93349000Y-114903840D01*
X93349000Y-115004160D01*
X93374964Y-115101061D01*
X93425124Y-115187940D01*
X93441184Y-115204000D01*
X92595000Y-115204000D01*
X92595000Y-115636844D01*
X92601401Y-115696372D01*
X92601403Y-115696379D01*
X92651645Y-115831086D01*
X92651649Y-115831093D01*
X92737809Y-115946187D01*
X92737812Y-115946190D01*
X92852906Y-116032350D01*
X92852913Y-116032354D01*
X92987620Y-116082596D01*
X92987627Y-116082598D01*
X93047155Y-116088999D01*
X93047172Y-116089000D01*
X93480000Y-116089000D01*
X93480000Y-115242816D01*
X93496060Y-115258876D01*
X93582939Y-115309036D01*
X93679840Y-115335000D01*
X93780160Y-115335000D01*
X93877061Y-115309036D01*
X93963940Y-115258876D01*
X93980000Y-115242816D01*
X93980000Y-116089000D01*
X94412828Y-116089000D01*
X94412844Y-116088999D01*
X94472372Y-116082598D01*
X94472379Y-116082596D01*
X94607086Y-116032354D01*
X94607093Y-116032350D01*
X94722187Y-115946190D01*
X94722190Y-115946187D01*
X94808350Y-115831093D01*
X94808354Y-115831086D01*
X94858596Y-115696379D01*
X94858598Y-115696372D01*
X94864999Y-115636844D01*
X94865000Y-115636827D01*
X94865000Y-115204000D01*
X94018816Y-115204000D01*
X94034876Y-115187940D01*
X94085036Y-115101061D01*
X94111000Y-115004160D01*
X94111000Y-114903840D01*
X94085036Y-114806939D01*
X94034876Y-114720060D01*
X94018816Y-114704000D01*
X94865000Y-114704000D01*
X94865000Y-114271172D01*
X94864999Y-114271155D01*
X94858598Y-114211627D01*
X94858596Y-114211620D01*
X94808354Y-114076913D01*
X94808350Y-114076906D01*
X94722190Y-113961812D01*
X94722187Y-113961809D01*
X94607093Y-113875649D01*
X94607086Y-113875645D01*
X94472379Y-113825403D01*
X94472372Y-113825401D01*
X94412844Y-113819000D01*
X93980000Y-113819000D01*
X93980000Y-114665184D01*
X93963940Y-114649124D01*
X93877061Y-114598964D01*
X93780160Y-114573000D01*
X93679840Y-114573000D01*
X93582939Y-114598964D01*
X93496060Y-114649124D01*
X93480000Y-114665184D01*
X93480000Y-113819000D01*
X93047155Y-113819000D01*
X92987627Y-113825401D01*
X92987620Y-113825403D01*
X92852913Y-113875645D01*
X92852906Y-113875649D01*
X92737812Y-113961809D01*
X92737809Y-113961812D01*
X92651649Y-114076906D01*
X92651645Y-114076913D01*
X92601403Y-114211620D01*
X92601401Y-114211627D01*
X92595000Y-114271155D01*
X90355500Y-114271155D01*
X90355500Y-102155110D01*
X93821000Y-102155110D01*
X93821000Y-102352889D01*
X93859581Y-102546848D01*
X93859583Y-102546856D01*
X93935267Y-102729573D01*
X94045140Y-102894011D01*
X94045146Y-102894018D01*
X94184981Y-103033853D01*
X94184988Y-103033859D01*
X94349426Y-103143732D01*
X94349427Y-103143732D01*
X94349428Y-103143733D01*
X94532144Y-103219417D01*
X94726110Y-103257999D01*
X94726114Y-103258000D01*
X94726115Y-103258000D01*
X94923886Y-103258000D01*
X94923887Y-103257999D01*
X95117856Y-103219417D01*
X95300572Y-103143733D01*
X95465013Y-103033858D01*
X95492063Y-103006808D01*
X95608053Y-102890819D01*
X95669376Y-102857334D01*
X95695734Y-102854500D01*
X118558903Y-102854500D01*
X118625942Y-102874185D01*
X118646584Y-102890819D01*
X122243584Y-106487819D01*
X122277069Y-106549142D01*
X122272085Y-106618834D01*
X122230213Y-106674767D01*
X122164749Y-106699184D01*
X122155903Y-106699500D01*
X121962648Y-106699500D01*
X121938329Y-106703351D01*
X121760465Y-106731522D01*
X121565776Y-106794781D01*
X121383386Y-106887715D01*
X121217786Y-107008028D01*
X121073028Y-107152786D01*
X120952713Y-107318388D01*
X120905203Y-107411630D01*
X120857228Y-107462426D01*
X120789407Y-107479220D01*
X120723272Y-107456682D01*
X120684234Y-107411628D01*
X120636861Y-107318652D01*
X120604474Y-107274077D01*
X120604474Y-107274076D01*
X119925000Y-107953551D01*
X119925000Y-107947339D01*
X119897741Y-107845606D01*
X119845080Y-107754394D01*
X119770606Y-107679920D01*
X119679394Y-107627259D01*
X119577661Y-107600000D01*
X119571446Y-107600000D01*
X120250922Y-106920524D01*
X120250921Y-106920523D01*
X120206359Y-106888147D01*
X120206350Y-106888141D01*
X120024031Y-106795244D01*
X119829417Y-106732009D01*
X119627317Y-106700000D01*
X119422683Y-106700000D01*
X119220582Y-106732009D01*
X119025968Y-106795244D01*
X118843644Y-106888143D01*
X118799077Y-106920523D01*
X118799077Y-106920524D01*
X119478554Y-107600000D01*
X119472339Y-107600000D01*
X119370606Y-107627259D01*
X119279394Y-107679920D01*
X119204920Y-107754394D01*
X119152259Y-107845606D01*
X119125000Y-107947339D01*
X119125000Y-107953553D01*
X118445524Y-107274077D01*
X118445523Y-107274077D01*
X118413143Y-107318644D01*
X118365765Y-107411630D01*
X118317790Y-107462426D01*
X118249969Y-107479221D01*
X118183834Y-107456683D01*
X118144795Y-107411630D01*
X118144515Y-107411080D01*
X118097287Y-107318390D01*
X118097285Y-107318387D01*
X118097284Y-107318385D01*
X117976971Y-107152786D01*
X117832213Y-107008028D01*
X117666613Y-106887715D01*
X117666612Y-106887714D01*
X117666610Y-106887713D01*
X117586202Y-106846743D01*
X117484223Y-106794781D01*
X117289534Y-106731522D01*
X117114995Y-106703878D01*
X117087352Y-106699500D01*
X116882648Y-106699500D01*
X116858329Y-106703351D01*
X116680465Y-106731522D01*
X116485776Y-106794781D01*
X116303386Y-106887715D01*
X116137786Y-107008028D01*
X115993028Y-107152786D01*
X115872715Y-107318386D01*
X115825485Y-107411080D01*
X115777510Y-107461876D01*
X115709689Y-107478671D01*
X115643554Y-107456134D01*
X115604515Y-107411080D01*
X115603883Y-107409840D01*
X115557287Y-107318390D01*
X115525092Y-107274077D01*
X115436971Y-107152786D01*
X115292213Y-107008028D01*
X115126613Y-106887715D01*
X115126612Y-106887714D01*
X115126610Y-106887713D01*
X115046202Y-106846743D01*
X114944223Y-106794781D01*
X114749534Y-106731522D01*
X114574995Y-106703878D01*
X114547352Y-106699500D01*
X114342648Y-106699500D01*
X114318329Y-106703351D01*
X114140465Y-106731522D01*
X113945776Y-106794781D01*
X113763386Y-106887715D01*
X113597786Y-107008028D01*
X113453028Y-107152786D01*
X113332715Y-107318386D01*
X113285485Y-107411080D01*
X113237510Y-107461876D01*
X113169689Y-107478671D01*
X113103554Y-107456134D01*
X113064515Y-107411080D01*
X113063883Y-107409840D01*
X113017287Y-107318390D01*
X112985092Y-107274077D01*
X112896971Y-107152786D01*
X112752213Y-107008028D01*
X112586613Y-106887715D01*
X112586612Y-106887714D01*
X112586610Y-106887713D01*
X112506202Y-106846743D01*
X112404223Y-106794781D01*
X112209534Y-106731522D01*
X112034995Y-106703878D01*
X112007352Y-106699500D01*
X111802648Y-106699500D01*
X111778329Y-106703351D01*
X111600465Y-106731522D01*
X111405776Y-106794781D01*
X111223386Y-106887715D01*
X111057786Y-107008028D01*
X110913028Y-107152786D01*
X110792715Y-107318386D01*
X110745485Y-107411080D01*
X110697510Y-107461876D01*
X110629689Y-107478671D01*
X110563554Y-107456134D01*
X110524515Y-107411080D01*
X110523883Y-107409840D01*
X110477287Y-107318390D01*
X110445092Y-107274077D01*
X110356971Y-107152786D01*
X110212213Y-107008028D01*
X110046613Y-106887715D01*
X110046612Y-106887714D01*
X110046610Y-106887713D01*
X109966202Y-106846743D01*
X109864223Y-106794781D01*
X109669534Y-106731522D01*
X109494995Y-106703878D01*
X109467352Y-106699500D01*
X109262648Y-106699500D01*
X109238329Y-106703351D01*
X109060465Y-106731522D01*
X108865776Y-106794781D01*
X108683386Y-106887715D01*
X108517786Y-107008028D01*
X108373028Y-107152786D01*
X108252715Y-107318386D01*
X108205485Y-107411080D01*
X108157510Y-107461876D01*
X108089689Y-107478671D01*
X108023554Y-107456134D01*
X107984515Y-107411080D01*
X107983883Y-107409840D01*
X107937287Y-107318390D01*
X107905092Y-107274077D01*
X107816971Y-107152786D01*
X107672213Y-107008028D01*
X107506613Y-106887715D01*
X107506612Y-106887714D01*
X107506610Y-106887713D01*
X107426202Y-106846743D01*
X107324223Y-106794781D01*
X107129534Y-106731522D01*
X106954995Y-106703878D01*
X106927352Y-106699500D01*
X106722648Y-106699500D01*
X106698329Y-106703351D01*
X106520465Y-106731522D01*
X106325776Y-106794781D01*
X106143386Y-106887715D01*
X105977786Y-107008028D01*
X105833028Y-107152786D01*
X105712715Y-107318386D01*
X105665485Y-107411080D01*
X105617510Y-107461876D01*
X105549689Y-107478671D01*
X105483554Y-107456134D01*
X105444515Y-107411080D01*
X105443883Y-107409840D01*
X105397287Y-107318390D01*
X105365092Y-107274077D01*
X105276971Y-107152786D01*
X105132213Y-107008028D01*
X104966613Y-106887715D01*
X104966612Y-106887714D01*
X104966610Y-106887713D01*
X104886202Y-106846743D01*
X104784223Y-106794781D01*
X104589534Y-106731522D01*
X104414995Y-106703878D01*
X104387352Y-106699500D01*
X104182648Y-106699500D01*
X104158329Y-106703351D01*
X103980465Y-106731522D01*
X103785776Y-106794781D01*
X103603386Y-106887715D01*
X103437786Y-107008028D01*
X103293032Y-107152782D01*
X103293028Y-107152787D01*
X103224978Y-107246451D01*
X103169648Y-107289117D01*
X103100035Y-107295096D01*
X103038240Y-107262490D01*
X103006954Y-107212570D01*
X102987144Y-107152787D01*
X102979814Y-107130666D01*
X102887712Y-106981344D01*
X102763656Y-106857288D01*
X102614334Y-106765186D01*
X102447797Y-106710001D01*
X102447795Y-106710000D01*
X102345010Y-106699500D01*
X101144998Y-106699500D01*
X101144981Y-106699501D01*
X101042203Y-106710000D01*
X101042200Y-106710001D01*
X100875668Y-106765185D01*
X100875663Y-106765187D01*
X100726342Y-106857289D01*
X100602289Y-106981342D01*
X100510187Y-107130663D01*
X100510186Y-107130666D01*
X100455001Y-107297203D01*
X100455001Y-107297204D01*
X100455000Y-107297204D01*
X100444500Y-107399983D01*
X100444500Y-108600001D01*
X100444501Y-108600018D01*
X100455000Y-108702796D01*
X100455001Y-108702799D01*
X100471818Y-108753548D01*
X100510186Y-108869334D01*
X100602288Y-109018656D01*
X100726344Y-109142712D01*
X100875666Y-109234814D01*
X101042203Y-109289999D01*
X101144991Y-109300500D01*
X102345008Y-109300499D01*
X102447797Y-109289999D01*
X102614334Y-109234814D01*
X102763656Y-109142712D01*
X102887712Y-109018656D01*
X102979814Y-108869334D01*
X103006955Y-108787427D01*
X103046726Y-108729984D01*
X103111242Y-108703161D01*
X103180018Y-108715476D01*
X103224977Y-108753547D01*
X103293034Y-108847219D01*
X103437781Y-108991966D01*
X103603390Y-109112287D01*
X103616793Y-109119116D01*
X103667589Y-109167088D01*
X103684500Y-109229601D01*
X103684500Y-111373902D01*
X103664815Y-111440941D01*
X103648181Y-111461583D01*
X101645624Y-113464139D01*
X101584301Y-113497624D01*
X101538545Y-113498931D01*
X101445888Y-113484255D01*
X101415861Y-113479500D01*
X101234139Y-113479500D01*
X101174310Y-113488976D01*
X101054652Y-113507928D01*
X101054649Y-113507928D01*
X100881828Y-113564081D01*
X100881825Y-113564083D01*
X100719909Y-113646583D01*
X100660865Y-113689482D01*
X100572894Y-113753397D01*
X100572892Y-113753399D01*
X100572891Y-113753399D01*
X100444399Y-113881891D01*
X100444399Y-113881892D01*
X100444397Y-113881894D01*
X100413355Y-113924619D01*
X100337583Y-114028909D01*
X100255083Y-114190825D01*
X100255081Y-114190828D01*
X100198928Y-114363649D01*
X100198928Y-114363652D01*
X100170500Y-114543139D01*
X100170500Y-114724860D01*
X100198928Y-114904347D01*
X100198928Y-114904350D01*
X100255081Y-115077171D01*
X100255083Y-115077174D01*
X100337583Y-115239090D01*
X100428783Y-115364616D01*
X100452263Y-115430420D01*
X100436438Y-115498474D01*
X100386333Y-115547169D01*
X100328465Y-115561500D01*
X97778097Y-115561500D01*
X97711058Y-115541815D01*
X97690416Y-115525181D01*
X97423253Y-115258018D01*
X97389768Y-115196695D01*
X97388461Y-115150943D01*
X97405500Y-115043366D01*
X97405500Y-114864634D01*
X97377540Y-114688103D01*
X97377539Y-114688099D01*
X97377539Y-114688098D01*
X97322310Y-114518121D01*
X97322308Y-114518118D01*
X97308486Y-114490989D01*
X97241167Y-114358868D01*
X97136111Y-114214272D01*
X97009728Y-114087889D01*
X96921613Y-114023869D01*
X96878948Y-113968539D01*
X96870500Y-113923552D01*
X96870500Y-108668060D01*
X96870501Y-108668047D01*
X96870501Y-108499944D01*
X96864879Y-108478962D01*
X96829577Y-108347216D01*
X96813910Y-108320080D01*
X96750524Y-108210290D01*
X96750518Y-108210282D01*
X95865319Y-107325083D01*
X95831834Y-107263760D01*
X95829000Y-107237402D01*
X95829000Y-107035114D01*
X95828999Y-107035110D01*
X95815754Y-106968521D01*
X95790417Y-106841144D01*
X95714733Y-106658428D01*
X95688277Y-106618834D01*
X95604859Y-106493988D01*
X95604853Y-106493981D01*
X95465018Y-106354146D01*
X95465011Y-106354140D01*
X95300573Y-106244267D01*
X95117856Y-106168583D01*
X95117848Y-106168581D01*
X94923889Y-106130000D01*
X94923885Y-106130000D01*
X94726115Y-106130000D01*
X94726110Y-106130000D01*
X94532151Y-106168581D01*
X94532143Y-106168583D01*
X94349426Y-106244267D01*
X94184988Y-106354140D01*
X94184981Y-106354146D01*
X94045146Y-106493981D01*
X94045140Y-106493988D01*
X93935267Y-106658426D01*
X93859583Y-106841143D01*
X93859581Y-106841151D01*
X93821000Y-107035110D01*
X93821000Y-107232889D01*
X93859581Y-107426848D01*
X93859583Y-107426856D01*
X93935267Y-107609573D01*
X94045140Y-107774011D01*
X94045146Y-107774018D01*
X94184981Y-107913853D01*
X94184988Y-107913859D01*
X94349426Y-108023732D01*
X94349427Y-108023732D01*
X94349428Y-108023733D01*
X94532144Y-108099417D01*
X94726110Y-108137999D01*
X94726114Y-108138000D01*
X94928402Y-108138000D01*
X94995441Y-108157685D01*
X95016083Y-108174319D01*
X95633181Y-108791416D01*
X95666666Y-108852739D01*
X95669500Y-108879097D01*
X95669500Y-113923552D01*
X95649815Y-113990591D01*
X95618386Y-114023869D01*
X95613724Y-114027257D01*
X95530270Y-114087890D01*
X95403890Y-114214270D01*
X95298833Y-114358867D01*
X95217691Y-114518118D01*
X95217689Y-114518121D01*
X95162460Y-114688098D01*
X95162460Y-114688101D01*
X95134500Y-114864634D01*
X95134500Y-115043365D01*
X95162460Y-115219898D01*
X95162460Y-115219901D01*
X95217689Y-115389878D01*
X95217691Y-115389881D01*
X95298833Y-115549132D01*
X95403889Y-115693728D01*
X95530272Y-115820111D01*
X95674868Y-115925167D01*
X95834119Y-116006309D01*
X95834121Y-116006310D01*
X95914265Y-116032350D01*
X96004103Y-116061540D01*
X96180634Y-116089500D01*
X96180635Y-116089500D01*
X96359364Y-116089500D01*
X96359366Y-116089500D01*
X96466941Y-116072461D01*
X96536232Y-116081415D01*
X96574018Y-116107253D01*
X96941584Y-116474819D01*
X96975069Y-116536142D01*
X96970085Y-116605834D01*
X96928213Y-116661767D01*
X96862749Y-116686184D01*
X96853903Y-116686500D01*
X95752766Y-116686500D01*
X95685727Y-116666815D01*
X95683875Y-116665602D01*
X95552185Y-116577609D01*
X95552172Y-116577602D01*
X95406501Y-116517264D01*
X95406489Y-116517261D01*
X95251845Y-116486500D01*
X95251842Y-116486500D01*
X95094158Y-116486500D01*
X95094155Y-116486500D01*
X94939510Y-116517261D01*
X94939498Y-116517264D01*
X94793827Y-116577602D01*
X94793814Y-116577609D01*
X94662711Y-116665210D01*
X94662707Y-116665213D01*
X94551213Y-116776707D01*
X94551210Y-116776711D01*
X94463609Y-116907814D01*
X94463602Y-116907827D01*
X94403264Y-117053498D01*
X94403261Y-117053510D01*
X94372500Y-117208153D01*
X94372500Y-117365846D01*
X94403261Y-117520489D01*
X94403264Y-117520501D01*
X94463602Y-117666172D01*
X94463609Y-117666185D01*
X94551210Y-117797288D01*
X94551213Y-117797292D01*
X94662707Y-117908786D01*
X94662711Y-117908789D01*
X94793814Y-117996390D01*
X94793827Y-117996397D01*
X94939498Y-118056735D01*
X94939503Y-118056737D01*
X95094153Y-118087499D01*
X95094156Y-118087500D01*
X95094158Y-118087500D01*
X95251844Y-118087500D01*
X95251845Y-118087499D01*
X95406497Y-118056737D01*
X95552179Y-117996394D01*
X95683289Y-117908789D01*
X95718258Y-117873820D01*
X95779580Y-117840334D01*
X95805940Y-117837500D01*
X170148764Y-117837500D01*
X170148766Y-117837500D01*
X170295135Y-117798281D01*
X170426365Y-117722515D01*
X171950061Y-116198819D01*
X172011384Y-116165334D01*
X172037742Y-116162500D01*
X174822000Y-116162500D01*
X174889039Y-116182185D01*
X174934794Y-116234989D01*
X174946000Y-116286500D01*
X174946000Y-117623370D01*
X174946001Y-117623376D01*
X174952408Y-117682983D01*
X175002702Y-117817828D01*
X175002706Y-117817835D01*
X175088952Y-117933044D01*
X175088955Y-117933047D01*
X175204164Y-118019293D01*
X175204171Y-118019297D01*
X175339017Y-118069591D01*
X175339016Y-118069591D01*
X175345944Y-118070335D01*
X175398627Y-118076000D01*
X176891372Y-118075999D01*
X176950983Y-118069591D01*
X177085831Y-118019296D01*
X177201046Y-117933046D01*
X177287296Y-117817831D01*
X177337591Y-117682983D01*
X177344000Y-117623373D01*
X177343999Y-116286499D01*
X177363684Y-116219461D01*
X177416487Y-116173706D01*
X177467999Y-116162500D01*
X179583258Y-116162500D01*
X179650297Y-116182185D01*
X179670939Y-116198819D01*
X180233144Y-116761023D01*
X180233154Y-116761034D01*
X180237484Y-116765364D01*
X180237485Y-116765365D01*
X180344635Y-116872515D01*
X180475865Y-116948281D01*
X180622233Y-116987500D01*
X180622234Y-116987500D01*
X182444501Y-116987500D01*
X182511540Y-117007185D01*
X182557295Y-117059989D01*
X182568501Y-117111500D01*
X182568501Y-117159876D01*
X182574908Y-117219483D01*
X182625202Y-117354328D01*
X182625206Y-117354335D01*
X182711452Y-117469544D01*
X182711455Y-117469547D01*
X182826664Y-117555793D01*
X182826671Y-117555797D01*
X182961517Y-117606091D01*
X182961516Y-117606091D01*
X182968444Y-117606835D01*
X183021127Y-117612500D01*
X185216872Y-117612499D01*
X185276483Y-117606091D01*
X185411331Y-117555796D01*
X185526546Y-117469546D01*
X185612796Y-117354331D01*
X185663091Y-117219483D01*
X185669500Y-117159873D01*
X185669500Y-117159844D01*
X191669000Y-117159844D01*
X191675401Y-117219372D01*
X191675403Y-117219379D01*
X191725645Y-117354086D01*
X191725649Y-117354093D01*
X191811809Y-117469187D01*
X191811812Y-117469190D01*
X191926906Y-117555350D01*
X191926913Y-117555354D01*
X192061620Y-117605596D01*
X192061627Y-117605598D01*
X192121155Y-117611999D01*
X192121172Y-117612000D01*
X192969000Y-117612000D01*
X193469000Y-117612000D01*
X194316828Y-117612000D01*
X194316844Y-117611999D01*
X194376372Y-117605598D01*
X194376379Y-117605596D01*
X194511086Y-117555354D01*
X194511093Y-117555350D01*
X194626187Y-117469190D01*
X194626190Y-117469187D01*
X194712350Y-117354093D01*
X194712354Y-117354086D01*
X194762596Y-117219379D01*
X194762598Y-117219372D01*
X194768999Y-117159844D01*
X194769000Y-117159827D01*
X194769000Y-116662000D01*
X193469000Y-116662000D01*
X193469000Y-117612000D01*
X192969000Y-117612000D01*
X192969000Y-116662000D01*
X191669000Y-116662000D01*
X191669000Y-117159844D01*
X185669500Y-117159844D01*
X185669499Y-116286500D01*
X185669499Y-115664155D01*
X191669000Y-115664155D01*
X191669000Y-116162000D01*
X192969000Y-116162000D01*
X193469000Y-116162000D01*
X194769000Y-116162000D01*
X194769000Y-115664172D01*
X194768999Y-115664155D01*
X194762598Y-115604627D01*
X194762596Y-115604620D01*
X194712354Y-115469913D01*
X194712350Y-115469906D01*
X194626190Y-115354812D01*
X194626187Y-115354809D01*
X194511093Y-115268649D01*
X194511086Y-115268645D01*
X194376379Y-115218403D01*
X194376372Y-115218401D01*
X194316844Y-115212000D01*
X193469000Y-115212000D01*
X193469000Y-116162000D01*
X192969000Y-116162000D01*
X192969000Y-115212000D01*
X192121155Y-115212000D01*
X192061627Y-115218401D01*
X192061620Y-115218403D01*
X191926913Y-115268645D01*
X191926906Y-115268649D01*
X191811812Y-115354809D01*
X191811809Y-115354812D01*
X191725649Y-115469906D01*
X191725645Y-115469913D01*
X191675403Y-115604620D01*
X191675401Y-115604627D01*
X191669000Y-115664155D01*
X185669499Y-115664155D01*
X185669499Y-115664129D01*
X185669498Y-115664123D01*
X185669497Y-115664116D01*
X185663091Y-115604517D01*
X185640095Y-115542862D01*
X185612797Y-115469671D01*
X185612793Y-115469664D01*
X185526547Y-115354455D01*
X185526544Y-115354452D01*
X185411335Y-115268206D01*
X185411328Y-115268202D01*
X185276482Y-115217908D01*
X185276483Y-115217908D01*
X185216883Y-115211501D01*
X185216881Y-115211500D01*
X185216873Y-115211500D01*
X185216864Y-115211500D01*
X183021129Y-115211500D01*
X183021123Y-115211501D01*
X182961516Y-115217908D01*
X182826671Y-115268202D01*
X182826664Y-115268206D01*
X182711455Y-115354452D01*
X182711452Y-115354455D01*
X182625206Y-115469664D01*
X182625202Y-115469671D01*
X182574908Y-115604517D01*
X182571435Y-115636827D01*
X182568501Y-115664123D01*
X182568500Y-115664135D01*
X182568500Y-115712500D01*
X182548815Y-115779539D01*
X182496011Y-115825294D01*
X182444500Y-115836500D01*
X180987741Y-115836500D01*
X180920702Y-115816815D01*
X180900060Y-115800181D01*
X180579266Y-115479387D01*
X180226365Y-115126485D01*
X180160750Y-115088602D01*
X180095136Y-115050719D01*
X180063632Y-115042277D01*
X179997671Y-115024603D01*
X179938012Y-114988240D01*
X179907483Y-114925393D01*
X179915777Y-114856018D01*
X179942082Y-114817152D01*
X182210416Y-112548819D01*
X182237343Y-112534115D01*
X182263162Y-112517523D01*
X182269362Y-112516631D01*
X182271739Y-112515334D01*
X182298097Y-112512500D01*
X182444501Y-112512500D01*
X182511540Y-112532185D01*
X182557295Y-112584989D01*
X182568501Y-112636500D01*
X182568501Y-112659876D01*
X182574908Y-112719483D01*
X182625202Y-112854328D01*
X182625206Y-112854335D01*
X182711452Y-112969544D01*
X182711455Y-112969547D01*
X182826664Y-113055793D01*
X182826671Y-113055797D01*
X182961517Y-113106091D01*
X182961516Y-113106091D01*
X182968444Y-113106835D01*
X183021127Y-113112500D01*
X185216872Y-113112499D01*
X185276483Y-113106091D01*
X185411331Y-113055796D01*
X185526546Y-112969546D01*
X185612796Y-112854331D01*
X185663091Y-112719483D01*
X185669500Y-112659873D01*
X185669500Y-112659844D01*
X191669000Y-112659844D01*
X191675401Y-112719372D01*
X191675403Y-112719379D01*
X191725645Y-112854086D01*
X191725649Y-112854093D01*
X191811809Y-112969187D01*
X191811812Y-112969190D01*
X191926906Y-113055350D01*
X191926913Y-113055354D01*
X192061620Y-113105596D01*
X192061627Y-113105598D01*
X192121155Y-113111999D01*
X192121172Y-113112000D01*
X192969000Y-113112000D01*
X193469000Y-113112000D01*
X194316828Y-113112000D01*
X194316844Y-113111999D01*
X194376372Y-113105598D01*
X194376379Y-113105596D01*
X194511086Y-113055354D01*
X194511093Y-113055350D01*
X194626187Y-112969190D01*
X194626190Y-112969187D01*
X194712350Y-112854093D01*
X194712354Y-112854086D01*
X194762596Y-112719379D01*
X194762598Y-112719372D01*
X194768999Y-112659844D01*
X194769000Y-112659827D01*
X194769000Y-112162000D01*
X193469000Y-112162000D01*
X193469000Y-113112000D01*
X192969000Y-113112000D01*
X192969000Y-112162000D01*
X191669000Y-112162000D01*
X191669000Y-112659844D01*
X185669500Y-112659844D01*
X185669499Y-111905787D01*
X185669499Y-111164155D01*
X191669000Y-111164155D01*
X191669000Y-111662000D01*
X192969000Y-111662000D01*
X193469000Y-111662000D01*
X194769000Y-111662000D01*
X194769000Y-111164172D01*
X194768999Y-111164155D01*
X194762598Y-111104627D01*
X194762596Y-111104620D01*
X194712354Y-110969913D01*
X194712350Y-110969906D01*
X194626190Y-110854812D01*
X194626187Y-110854809D01*
X194511093Y-110768649D01*
X194511086Y-110768645D01*
X194376379Y-110718403D01*
X194376372Y-110718401D01*
X194316844Y-110712000D01*
X193469000Y-110712000D01*
X193469000Y-111662000D01*
X192969000Y-111662000D01*
X192969000Y-110712000D01*
X192121155Y-110712000D01*
X192061627Y-110718401D01*
X192061620Y-110718403D01*
X191926913Y-110768645D01*
X191926906Y-110768649D01*
X191811812Y-110854809D01*
X191811809Y-110854812D01*
X191725649Y-110969906D01*
X191725645Y-110969913D01*
X191675403Y-111104620D01*
X191675401Y-111104627D01*
X191669000Y-111164155D01*
X185669499Y-111164155D01*
X185669499Y-111164129D01*
X185669498Y-111164123D01*
X185669497Y-111164116D01*
X185663091Y-111104517D01*
X185640378Y-111043621D01*
X185612797Y-110969671D01*
X185612793Y-110969664D01*
X185526547Y-110854455D01*
X185526544Y-110854452D01*
X185411335Y-110768206D01*
X185411328Y-110768202D01*
X185276482Y-110717908D01*
X185276483Y-110717908D01*
X185216883Y-110711501D01*
X185216881Y-110711500D01*
X185216873Y-110711500D01*
X185216865Y-110711500D01*
X184843500Y-110711500D01*
X184840722Y-110710684D01*
X184837911Y-110711374D01*
X184807398Y-110700899D01*
X184776461Y-110691815D01*
X184774566Y-110689628D01*
X184771827Y-110688688D01*
X184751815Y-110663372D01*
X184730706Y-110639011D01*
X184729748Y-110635457D01*
X184728498Y-110633875D01*
X184726372Y-110622920D01*
X184720091Y-110599597D01*
X184719500Y-110593568D01*
X184719500Y-110553943D01*
X184716016Y-110540942D01*
X184708534Y-110513019D01*
X184678577Y-110401216D01*
X184667242Y-110381583D01*
X184599524Y-110264290D01*
X184599521Y-110264286D01*
X184599520Y-110264284D01*
X184487716Y-110152480D01*
X184487715Y-110152479D01*
X184483385Y-110148149D01*
X184483374Y-110148139D01*
X179435590Y-105100355D01*
X179435588Y-105100352D01*
X179316717Y-104981481D01*
X179316716Y-104981480D01*
X179229904Y-104931360D01*
X179229904Y-104931359D01*
X179229900Y-104931358D01*
X179179785Y-104902423D01*
X179027057Y-104861499D01*
X178868943Y-104861499D01*
X178861347Y-104861499D01*
X178861331Y-104861500D01*
X177264837Y-104861500D01*
X177197798Y-104841815D01*
X177164519Y-104810386D01*
X177120706Y-104750083D01*
X177059546Y-104665904D01*
X176926096Y-104532454D01*
X176773413Y-104421523D01*
X176605256Y-104335843D01*
X176425767Y-104277523D01*
X176425765Y-104277522D01*
X176425763Y-104277522D01*
X176239368Y-104248000D01*
X176239363Y-104248000D01*
X176050637Y-104248000D01*
X176050632Y-104248000D01*
X175864236Y-104277522D01*
X175684741Y-104335844D01*
X175516586Y-104421523D01*
X175429475Y-104484813D01*
X175363904Y-104532454D01*
X175363902Y-104532456D01*
X175363901Y-104532456D01*
X175230456Y-104665901D01*
X175230456Y-104665902D01*
X175230454Y-104665904D01*
X175182813Y-104731475D01*
X175119523Y-104818586D01*
X175033844Y-104986741D01*
X174975522Y-105166236D01*
X174946000Y-105352631D01*
X174946000Y-105541368D01*
X174972689Y-105709873D01*
X174975523Y-105727767D01*
X175033843Y-105907256D01*
X175119523Y-106075413D01*
X175230454Y-106228096D01*
X175363904Y-106361546D01*
X175516587Y-106472477D01*
X175684744Y-106558157D01*
X175864233Y-106616477D01*
X175934134Y-106627548D01*
X176050632Y-106646000D01*
X176050637Y-106646000D01*
X176239368Y-106646000D01*
X176342920Y-106629598D01*
X176425767Y-106616477D01*
X176605256Y-106558157D01*
X176773413Y-106472477D01*
X176926096Y-106361546D01*
X177059546Y-106228096D01*
X177142722Y-106113613D01*
X177198052Y-106070949D01*
X177243040Y-106062500D01*
X178647903Y-106062500D01*
X178714942Y-106082185D01*
X178735584Y-106098819D01*
X183136584Y-110499819D01*
X183170069Y-110561142D01*
X183165085Y-110630834D01*
X183123213Y-110686767D01*
X183057749Y-110711184D01*
X183048907Y-110711500D01*
X183021131Y-110711500D01*
X183021123Y-110711501D01*
X182961516Y-110717908D01*
X182826671Y-110768202D01*
X182826664Y-110768206D01*
X182711455Y-110854452D01*
X182711452Y-110854455D01*
X182625206Y-110969664D01*
X182625202Y-110969671D01*
X182574908Y-111104517D01*
X182568501Y-111164116D01*
X182568501Y-111164123D01*
X182568500Y-111164135D01*
X182568500Y-111187500D01*
X182548815Y-111254539D01*
X182496011Y-111300294D01*
X182444500Y-111311500D01*
X181918942Y-111311500D01*
X181766214Y-111352423D01*
X181747964Y-111362960D01*
X181743072Y-111365785D01*
X181729013Y-111373902D01*
X181629285Y-111431479D01*
X181629282Y-111431481D01*
X181517478Y-111543286D01*
X179035584Y-114025181D01*
X178974261Y-114058666D01*
X178947903Y-114061500D01*
X158013261Y-114061500D01*
X157946222Y-114041815D01*
X157925580Y-114025181D01*
X154700754Y-110800355D01*
X154700752Y-110800352D01*
X154581881Y-110681481D01*
X154581880Y-110681480D01*
X154495068Y-110631360D01*
X154495068Y-110631359D01*
X154495064Y-110631358D01*
X154444949Y-110602423D01*
X154292221Y-110561499D01*
X154134107Y-110561499D01*
X154126511Y-110561499D01*
X154126495Y-110561500D01*
X142902057Y-110561500D01*
X142743942Y-110561500D01*
X142591215Y-110602423D01*
X142591214Y-110602423D01*
X142591212Y-110602424D01*
X142591209Y-110602425D01*
X142541096Y-110631359D01*
X142541095Y-110631360D01*
X142533999Y-110635457D01*
X142454285Y-110681479D01*
X142454282Y-110681481D01*
X142342478Y-110793286D01*
X139978382Y-113157381D01*
X139917059Y-113190866D01*
X139890701Y-113193700D01*
X138871329Y-113193700D01*
X138871323Y-113193701D01*
X138811716Y-113200108D01*
X138676871Y-113250402D01*
X138676864Y-113250406D01*
X138561655Y-113336652D01*
X138561652Y-113336655D01*
X138475406Y-113451864D01*
X138475402Y-113451871D01*
X138425108Y-113586717D01*
X138420446Y-113630083D01*
X138418700Y-113646327D01*
X138418700Y-114300000D01*
X138418701Y-114857500D01*
X138399016Y-114924539D01*
X138346213Y-114970294D01*
X138294701Y-114981500D01*
X136093984Y-114981500D01*
X136026945Y-114961815D01*
X135981190Y-114909011D01*
X135971246Y-114839853D01*
X135971511Y-114838101D01*
X135979000Y-114790819D01*
X135979000Y-114609178D01*
X135950584Y-114429774D01*
X135894450Y-114257012D01*
X135811993Y-114095179D01*
X135811985Y-114095165D01*
X135799950Y-114078603D01*
X135799949Y-114078602D01*
X135225000Y-114653551D01*
X135225000Y-114647339D01*
X135197741Y-114545606D01*
X135145080Y-114454394D01*
X135070606Y-114379920D01*
X134979394Y-114327259D01*
X134877661Y-114300000D01*
X134871447Y-114300000D01*
X135446396Y-113725049D01*
X135446395Y-113725048D01*
X135429834Y-113713014D01*
X135429830Y-113713012D01*
X135267984Y-113630548D01*
X135095225Y-113574415D01*
X134915821Y-113546000D01*
X134734179Y-113546000D01*
X134554774Y-113574415D01*
X134382015Y-113630548D01*
X134220170Y-113713012D01*
X134220161Y-113713018D01*
X134203603Y-113725048D01*
X134203602Y-113725049D01*
X134778554Y-114300000D01*
X134772339Y-114300000D01*
X134670606Y-114327259D01*
X134579394Y-114379920D01*
X134504920Y-114454394D01*
X134452259Y-114545606D01*
X134425000Y-114647339D01*
X134425000Y-114653553D01*
X133842776Y-114071329D01*
X133833817Y-114068716D01*
X133804096Y-114062473D01*
X133799318Y-114058658D01*
X133795904Y-114057663D01*
X133783904Y-114046351D01*
X133769187Y-114034601D01*
X133765621Y-114030502D01*
X133705603Y-113947894D01*
X133577106Y-113819397D01*
X133430090Y-113712583D01*
X133268174Y-113630083D01*
X133268171Y-113630081D01*
X133095348Y-113573928D01*
X132957209Y-113552049D01*
X132915861Y-113545500D01*
X132734139Y-113545500D01*
X132692791Y-113552049D01*
X132554652Y-113573928D01*
X132554649Y-113573928D01*
X132381828Y-113630081D01*
X132381825Y-113630083D01*
X132219909Y-113712583D01*
X132163732Y-113753399D01*
X132072894Y-113819397D01*
X132072892Y-113819399D01*
X132072891Y-113819399D01*
X131944396Y-113947894D01*
X131925317Y-113974155D01*
X131869986Y-114016820D01*
X131800373Y-114022798D01*
X131738578Y-113990191D01*
X131724683Y-113974155D01*
X131705603Y-113947894D01*
X131577108Y-113819399D01*
X131577106Y-113819397D01*
X131430090Y-113712583D01*
X131268174Y-113630083D01*
X131268171Y-113630081D01*
X131095348Y-113573928D01*
X130957209Y-113552049D01*
X130915861Y-113545500D01*
X130734139Y-113545500D01*
X130692791Y-113552049D01*
X130554652Y-113573928D01*
X130554649Y-113573928D01*
X130381828Y-113630081D01*
X130381825Y-113630083D01*
X130219909Y-113712583D01*
X130163732Y-113753399D01*
X130072894Y-113819397D01*
X130072892Y-113819399D01*
X130072891Y-113819399D01*
X129944396Y-113947894D01*
X129925317Y-113974155D01*
X129869986Y-114016820D01*
X129800373Y-114022798D01*
X129738578Y-113990191D01*
X129724683Y-113974155D01*
X129705603Y-113947894D01*
X129577108Y-113819399D01*
X129577106Y-113819397D01*
X129430090Y-113712583D01*
X129268174Y-113630083D01*
X129268171Y-113630081D01*
X129095348Y-113573928D01*
X128957209Y-113552049D01*
X128915861Y-113545500D01*
X128734139Y-113545500D01*
X128692791Y-113552049D01*
X128554652Y-113573928D01*
X128554649Y-113573928D01*
X128381828Y-113630081D01*
X128381825Y-113630083D01*
X128219909Y-113712583D01*
X128163732Y-113753399D01*
X128072894Y-113819397D01*
X128072892Y-113819399D01*
X128072891Y-113819399D01*
X127944396Y-113947894D01*
X127925317Y-113974155D01*
X127869986Y-114016820D01*
X127800373Y-114022798D01*
X127738578Y-113990191D01*
X127724683Y-113974155D01*
X127705603Y-113947894D01*
X127577108Y-113819399D01*
X127577102Y-113819394D01*
X127561025Y-113807713D01*
X127507906Y-113769120D01*
X127465241Y-113713791D01*
X127459262Y-113644178D01*
X127491868Y-113582383D01*
X127493040Y-113581193D01*
X131780159Y-109294075D01*
X131841480Y-109260592D01*
X131906154Y-109263826D01*
X131920466Y-109268477D01*
X132122648Y-109300500D01*
X132122649Y-109300500D01*
X132327351Y-109300500D01*
X132327352Y-109300500D01*
X132529534Y-109268477D01*
X132724219Y-109205220D01*
X132906610Y-109112287D01*
X133035482Y-109018657D01*
X133072213Y-108991971D01*
X133072215Y-108991968D01*
X133072219Y-108991966D01*
X133216966Y-108847219D01*
X133216968Y-108847215D01*
X133216971Y-108847213D01*
X133337284Y-108681614D01*
X133337286Y-108681611D01*
X133337287Y-108681610D01*
X133384516Y-108588917D01*
X133432489Y-108538123D01*
X133500310Y-108521328D01*
X133566445Y-108543865D01*
X133605483Y-108588917D01*
X133632682Y-108642297D01*
X133652715Y-108681614D01*
X133773028Y-108847213D01*
X133917786Y-108991971D01*
X134038226Y-109079474D01*
X134083390Y-109112287D01*
X134164499Y-109153614D01*
X134265776Y-109205218D01*
X134265778Y-109205218D01*
X134265781Y-109205220D01*
X134356856Y-109234812D01*
X134460465Y-109268477D01*
X134561557Y-109284488D01*
X134662648Y-109300500D01*
X134662649Y-109300500D01*
X134867351Y-109300500D01*
X134867352Y-109300500D01*
X135069534Y-109268477D01*
X135264219Y-109205220D01*
X135446610Y-109112287D01*
X135575482Y-109018657D01*
X135612213Y-108991971D01*
X135612215Y-108991968D01*
X135612219Y-108991966D01*
X135756966Y-108847219D01*
X135756968Y-108847215D01*
X135756971Y-108847213D01*
X135825021Y-108753548D01*
X135877287Y-108681610D01*
X135970220Y-108499219D01*
X136033477Y-108304534D01*
X136065500Y-108102352D01*
X136065500Y-107897648D01*
X136033477Y-107695466D01*
X136028825Y-107681151D01*
X136026832Y-107611312D01*
X136059075Y-107555158D01*
X136635506Y-106978728D01*
X136635511Y-106978724D01*
X136645714Y-106968520D01*
X136645716Y-106968520D01*
X136757520Y-106856716D01*
X136810364Y-106765186D01*
X136817033Y-106753635D01*
X138371000Y-106753635D01*
X138371000Y-108246370D01*
X138371001Y-108246376D01*
X138377408Y-108305983D01*
X138427702Y-108440828D01*
X138427706Y-108440835D01*
X138513952Y-108556044D01*
X138513955Y-108556047D01*
X138629164Y-108642293D01*
X138629171Y-108642297D01*
X138764017Y-108692591D01*
X138764016Y-108692591D01*
X138770944Y-108693335D01*
X138823627Y-108699000D01*
X140316372Y-108698999D01*
X140375983Y-108692591D01*
X140510831Y-108642296D01*
X140626046Y-108556046D01*
X140712296Y-108440831D01*
X140762591Y-108305983D01*
X140769000Y-108246373D01*
X140768999Y-107405676D01*
X149801500Y-107405676D01*
X149801500Y-107594323D01*
X149831011Y-107780650D01*
X149889304Y-107960061D01*
X149889305Y-107960063D01*
X149974952Y-108128153D01*
X149993189Y-108153255D01*
X149993190Y-108153255D01*
X150562352Y-107584093D01*
X150585792Y-107671571D01*
X150644311Y-107772930D01*
X150727070Y-107855689D01*
X150828429Y-107914208D01*
X150915905Y-107937647D01*
X150346743Y-108506808D01*
X150346743Y-108506809D01*
X150371844Y-108525046D01*
X150539935Y-108610694D01*
X150539938Y-108610695D01*
X150719349Y-108668988D01*
X150905677Y-108698500D01*
X151094323Y-108698500D01*
X151280650Y-108668988D01*
X151460061Y-108610695D01*
X151460064Y-108610694D01*
X151628151Y-108525048D01*
X151653255Y-108506808D01*
X151653256Y-108506808D01*
X151084095Y-107937647D01*
X151171571Y-107914208D01*
X151272930Y-107855689D01*
X151355689Y-107772930D01*
X151414208Y-107671571D01*
X151437647Y-107584094D01*
X152006808Y-108153256D01*
X152006808Y-108153255D01*
X152025048Y-108128151D01*
X152110694Y-107960064D01*
X152110695Y-107960061D01*
X152168988Y-107780650D01*
X152198500Y-107594323D01*
X152198500Y-107405676D01*
X152168988Y-107219349D01*
X152110695Y-107039938D01*
X152110694Y-107039935D01*
X152025046Y-106871844D01*
X152006809Y-106846743D01*
X152006808Y-106846743D01*
X151437647Y-107415904D01*
X151414208Y-107328429D01*
X151355689Y-107227070D01*
X151272930Y-107144311D01*
X151171571Y-107085792D01*
X151084094Y-107062352D01*
X151653255Y-106493190D01*
X151653255Y-106493189D01*
X151628153Y-106474952D01*
X151460063Y-106389305D01*
X151460061Y-106389304D01*
X151280650Y-106331011D01*
X151094323Y-106301500D01*
X150905677Y-106301500D01*
X150719349Y-106331011D01*
X150539938Y-106389304D01*
X150539936Y-106389305D01*
X150371844Y-106474953D01*
X150371839Y-106474957D01*
X150346743Y-106493188D01*
X150346743Y-106493191D01*
X150915906Y-107062352D01*
X150828429Y-107085792D01*
X150727070Y-107144311D01*
X150644311Y-107227070D01*
X150585792Y-107328429D01*
X150562352Y-107415905D01*
X149993191Y-106846743D01*
X149993188Y-106846743D01*
X149974957Y-106871839D01*
X149974953Y-106871844D01*
X149889305Y-107039936D01*
X149889304Y-107039938D01*
X149831011Y-107219349D01*
X149801500Y-107405676D01*
X140768999Y-107405676D01*
X140768999Y-106753628D01*
X140762591Y-106694017D01*
X140749316Y-106658426D01*
X140721481Y-106583796D01*
X140712296Y-106559169D01*
X140712295Y-106559167D01*
X140712293Y-106559164D01*
X140626047Y-106443955D01*
X140626044Y-106443952D01*
X140510835Y-106357706D01*
X140510828Y-106357702D01*
X140375982Y-106307408D01*
X140375983Y-106307408D01*
X140316383Y-106301001D01*
X140316381Y-106301000D01*
X140316373Y-106301000D01*
X140316364Y-106301000D01*
X138823629Y-106301000D01*
X138823623Y-106301001D01*
X138764016Y-106307408D01*
X138629171Y-106357702D01*
X138629164Y-106357706D01*
X138513955Y-106443952D01*
X138513952Y-106443955D01*
X138427706Y-106559164D01*
X138427702Y-106559171D01*
X138377408Y-106694017D01*
X138371001Y-106753616D01*
X138371001Y-106753623D01*
X138371000Y-106753635D01*
X136817033Y-106753635D01*
X136836577Y-106719785D01*
X136877501Y-106567057D01*
X136877501Y-106408943D01*
X136877501Y-106401348D01*
X136877500Y-106401330D01*
X136877500Y-101253635D01*
X138371000Y-101253635D01*
X138371000Y-102746370D01*
X138371001Y-102746376D01*
X138377408Y-102805983D01*
X138427702Y-102940828D01*
X138427706Y-102940835D01*
X138513952Y-103056044D01*
X138513955Y-103056047D01*
X138629164Y-103142293D01*
X138629171Y-103142297D01*
X138764017Y-103192591D01*
X138764016Y-103192591D01*
X138770944Y-103193335D01*
X138823627Y-103199000D01*
X140316372Y-103198999D01*
X140375983Y-103192591D01*
X140510831Y-103142296D01*
X140626046Y-103056046D01*
X140712296Y-102940831D01*
X140762591Y-102805983D01*
X140769000Y-102746373D01*
X140768999Y-101905676D01*
X149801500Y-101905676D01*
X149801500Y-102094323D01*
X149831011Y-102280650D01*
X149889304Y-102460061D01*
X149889305Y-102460063D01*
X149974952Y-102628153D01*
X149993189Y-102653255D01*
X149993190Y-102653255D01*
X150562352Y-102084093D01*
X150585792Y-102171571D01*
X150644311Y-102272930D01*
X150727070Y-102355689D01*
X150828429Y-102414208D01*
X150915905Y-102437647D01*
X150346743Y-103006808D01*
X150346743Y-103006809D01*
X150371844Y-103025046D01*
X150539935Y-103110694D01*
X150539938Y-103110695D01*
X150719349Y-103168988D01*
X150905677Y-103198500D01*
X151094323Y-103198500D01*
X151280650Y-103168988D01*
X151460061Y-103110695D01*
X151460064Y-103110694D01*
X151628151Y-103025048D01*
X151653255Y-103006808D01*
X151653256Y-103006808D01*
X151084095Y-102437647D01*
X151171571Y-102414208D01*
X151272930Y-102355689D01*
X151355689Y-102272930D01*
X151414208Y-102171571D01*
X151437647Y-102084094D01*
X152006808Y-102653256D01*
X152006808Y-102653255D01*
X152025048Y-102628151D01*
X152110694Y-102460064D01*
X152110695Y-102460061D01*
X152168988Y-102280650D01*
X152198500Y-102094323D01*
X152198500Y-101905676D01*
X152168988Y-101719349D01*
X152110695Y-101539938D01*
X152110694Y-101539935D01*
X152025046Y-101371844D01*
X152006809Y-101346743D01*
X152006808Y-101346743D01*
X151437647Y-101915904D01*
X151414208Y-101828429D01*
X151355689Y-101727070D01*
X151272930Y-101644311D01*
X151171571Y-101585792D01*
X151084094Y-101562352D01*
X151653255Y-100993190D01*
X151653255Y-100993189D01*
X151628153Y-100974952D01*
X151460063Y-100889305D01*
X151460061Y-100889304D01*
X151280650Y-100831011D01*
X151094323Y-100801500D01*
X150905677Y-100801500D01*
X150719349Y-100831011D01*
X150539938Y-100889304D01*
X150539936Y-100889305D01*
X150371844Y-100974953D01*
X150371839Y-100974957D01*
X150346743Y-100993188D01*
X150346743Y-100993191D01*
X150915906Y-101562352D01*
X150828429Y-101585792D01*
X150727070Y-101644311D01*
X150644311Y-101727070D01*
X150585792Y-101828429D01*
X150562352Y-101915905D01*
X149993191Y-101346743D01*
X149993188Y-101346743D01*
X149974957Y-101371839D01*
X149974953Y-101371844D01*
X149889305Y-101539936D01*
X149889304Y-101539938D01*
X149831011Y-101719349D01*
X149801500Y-101905676D01*
X140768999Y-101905676D01*
X140768999Y-101701595D01*
X140788684Y-101634557D01*
X140805313Y-101613920D01*
X146902417Y-95516819D01*
X146963740Y-95483334D01*
X146990098Y-95480500D01*
X149080501Y-95480500D01*
X149147540Y-95500185D01*
X149193295Y-95552989D01*
X149204501Y-95604500D01*
X149204501Y-95827876D01*
X149210908Y-95887483D01*
X149261202Y-96022328D01*
X149261206Y-96022335D01*
X149347452Y-96137544D01*
X149347455Y-96137547D01*
X149462664Y-96223793D01*
X149462671Y-96223797D01*
X149597517Y-96274091D01*
X149597516Y-96274091D01*
X149604444Y-96274835D01*
X149657127Y-96280500D01*
X151552872Y-96280499D01*
X151612483Y-96274091D01*
X151747331Y-96223796D01*
X151862546Y-96137546D01*
X151948796Y-96022331D01*
X151964032Y-95981481D01*
X151978601Y-95942420D01*
X152020471Y-95886486D01*
X152085936Y-95862068D01*
X152154209Y-95876919D01*
X152182464Y-95898071D01*
X152232636Y-95948243D01*
X152232641Y-95948247D01*
X152366490Y-96045493D01*
X152410978Y-96077815D01*
X152534939Y-96140977D01*
X152607393Y-96177895D01*
X152607396Y-96177896D01*
X152712221Y-96211955D01*
X152817049Y-96246015D01*
X153034778Y-96280500D01*
X153034779Y-96280500D01*
X153255221Y-96280500D01*
X153255222Y-96280500D01*
X153472951Y-96246015D01*
X153682606Y-96177895D01*
X153879022Y-96077815D01*
X154057365Y-95948242D01*
X154213242Y-95792365D01*
X154342815Y-95614022D01*
X154442895Y-95417606D01*
X154511015Y-95207951D01*
X154545500Y-94990222D01*
X154545500Y-94769778D01*
X154543910Y-94759738D01*
X174617000Y-94759738D01*
X174617000Y-95000261D01*
X174654521Y-95237157D01*
X174654624Y-95237808D01*
X174728947Y-95466548D01*
X174838137Y-95680847D01*
X174979507Y-95875425D01*
X175149575Y-96045493D01*
X175204841Y-96085646D01*
X175247506Y-96140977D01*
X175254073Y-96185521D01*
X175870723Y-96802170D01*
X175820531Y-96822961D01*
X175708338Y-96897926D01*
X175612926Y-96993338D01*
X175537961Y-97105531D01*
X175517170Y-97155723D01*
X174902653Y-96541205D01*
X174902652Y-96541206D01*
X174838567Y-96629411D01*
X174729413Y-96843639D01*
X174655111Y-97072315D01*
X174617500Y-97309783D01*
X174617500Y-97550216D01*
X174655111Y-97787684D01*
X174729413Y-98016360D01*
X174838567Y-98230587D01*
X174910722Y-98329901D01*
X174934202Y-98395707D01*
X174918376Y-98463761D01*
X174880534Y-98501070D01*
X174882269Y-98503388D01*
X174759955Y-98594952D01*
X174759952Y-98594955D01*
X174673706Y-98710164D01*
X174673702Y-98710171D01*
X174623408Y-98845017D01*
X174617001Y-98904616D01*
X174617001Y-98904623D01*
X174617000Y-98904635D01*
X174617000Y-101055370D01*
X174617001Y-101055376D01*
X174623408Y-101114983D01*
X174673702Y-101249828D01*
X174673706Y-101249835D01*
X174759952Y-101365044D01*
X174759955Y-101365047D01*
X174875164Y-101451293D01*
X174875171Y-101451297D01*
X175010017Y-101501591D01*
X175010016Y-101501591D01*
X175016944Y-101502335D01*
X175069627Y-101508000D01*
X177220372Y-101507999D01*
X177279983Y-101501591D01*
X177414831Y-101451296D01*
X177530046Y-101365046D01*
X177616296Y-101249831D01*
X177666591Y-101114983D01*
X177673000Y-101055373D01*
X177673000Y-100704501D01*
X177692685Y-100637462D01*
X177745489Y-100591707D01*
X177797000Y-100580501D01*
X177934054Y-100580501D01*
X177934057Y-100580501D01*
X178086785Y-100539577D01*
X178136904Y-100510639D01*
X178223716Y-100460520D01*
X178335520Y-100348716D01*
X178335521Y-100348713D01*
X183921416Y-94762819D01*
X183982739Y-94729334D01*
X184009097Y-94726500D01*
X185354062Y-94726500D01*
X185421101Y-94746185D01*
X185454378Y-94777612D01*
X185548454Y-94907096D01*
X185681904Y-95040546D01*
X185834587Y-95151477D01*
X186002744Y-95237157D01*
X186182233Y-95295477D01*
X186252134Y-95306548D01*
X186368632Y-95325000D01*
X186368637Y-95325000D01*
X186557368Y-95325000D01*
X186660920Y-95308598D01*
X186743767Y-95295477D01*
X186923256Y-95237157D01*
X187091413Y-95151477D01*
X187244096Y-95040546D01*
X187377546Y-94907096D01*
X187488477Y-94754413D01*
X187574157Y-94586256D01*
X187595069Y-94521894D01*
X187634507Y-94464219D01*
X187698865Y-94437021D01*
X187767712Y-94448936D01*
X187819187Y-94496180D01*
X187830929Y-94521892D01*
X187851843Y-94586256D01*
X187937523Y-94754413D01*
X188048454Y-94907096D01*
X188181904Y-95040546D01*
X188249433Y-95089609D01*
X188260395Y-95097573D01*
X188303061Y-95152903D01*
X188309040Y-95222516D01*
X188276434Y-95284311D01*
X188275191Y-95285572D01*
X187735584Y-95825181D01*
X187674261Y-95858666D01*
X187647903Y-95861500D01*
X183709670Y-95861500D01*
X183709654Y-95861499D01*
X183702058Y-95861499D01*
X183543943Y-95861499D01*
X183483336Y-95877739D01*
X183391214Y-95902423D01*
X183391209Y-95902426D01*
X183254290Y-95981475D01*
X183254282Y-95981481D01*
X178817479Y-100418284D01*
X178797024Y-100453714D01*
X178788378Y-100468691D01*
X178738423Y-100555215D01*
X178697499Y-100707943D01*
X178697499Y-100707945D01*
X178697499Y-100876046D01*
X178697500Y-100876059D01*
X178697500Y-102075330D01*
X178697499Y-102075348D01*
X178697499Y-102241054D01*
X178697498Y-102241054D01*
X178738423Y-102393785D01*
X178767358Y-102443900D01*
X178767359Y-102443904D01*
X178767360Y-102443904D01*
X178817479Y-102530714D01*
X178817481Y-102530717D01*
X178936349Y-102649585D01*
X178936354Y-102649589D01*
X180529284Y-104242520D01*
X180529286Y-104242521D01*
X180529290Y-104242524D01*
X180666209Y-104321573D01*
X180666216Y-104321577D01*
X180818943Y-104362501D01*
X180818945Y-104362501D01*
X180984654Y-104362501D01*
X180984670Y-104362500D01*
X182223501Y-104362500D01*
X182290540Y-104382185D01*
X182336295Y-104434989D01*
X182347501Y-104486500D01*
X182347501Y-105709876D01*
X182353908Y-105769483D01*
X182404202Y-105904328D01*
X182404206Y-105904335D01*
X182490452Y-106019544D01*
X182490455Y-106019547D01*
X182605664Y-106105793D01*
X182605671Y-106105797D01*
X182740517Y-106156091D01*
X182740516Y-106156091D01*
X182747444Y-106156835D01*
X182800127Y-106162500D01*
X184645872Y-106162499D01*
X184705483Y-106156091D01*
X184840331Y-106105796D01*
X184955546Y-106019546D01*
X185041796Y-105904331D01*
X185092091Y-105769483D01*
X185098500Y-105709873D01*
X185098499Y-103512000D01*
X185098499Y-101814155D01*
X188548000Y-101814155D01*
X188548000Y-103512000D01*
X189427700Y-103512000D01*
X189427700Y-104012000D01*
X188548000Y-104012000D01*
X188548000Y-105709844D01*
X188554401Y-105769372D01*
X188554403Y-105769379D01*
X188604645Y-105904086D01*
X188604649Y-105904093D01*
X188690809Y-106019187D01*
X188690812Y-106019190D01*
X188805906Y-106105350D01*
X188805913Y-106105354D01*
X188940620Y-106155596D01*
X188940627Y-106155598D01*
X189000155Y-106161999D01*
X189000172Y-106162000D01*
X189673000Y-106162000D01*
X189673000Y-105294485D01*
X189731821Y-105328446D01*
X189857793Y-105362200D01*
X189988207Y-105362200D01*
X190114179Y-105328446D01*
X190173000Y-105294485D01*
X190173000Y-106162000D01*
X190845828Y-106162000D01*
X190845844Y-106161999D01*
X190905372Y-106155598D01*
X190905379Y-106155596D01*
X191040086Y-106105354D01*
X191040093Y-106105350D01*
X191155187Y-106019190D01*
X191155190Y-106019187D01*
X191241350Y-105904093D01*
X191241354Y-105904086D01*
X191291596Y-105769379D01*
X191291598Y-105769372D01*
X191297999Y-105709844D01*
X191298000Y-105709827D01*
X191298000Y-104012000D01*
X190418300Y-104012000D01*
X190418300Y-103512000D01*
X191298000Y-103512000D01*
X191298000Y-101814172D01*
X191297999Y-101814155D01*
X191291598Y-101754627D01*
X191291596Y-101754620D01*
X191241354Y-101619913D01*
X191241350Y-101619906D01*
X191155190Y-101504812D01*
X191155187Y-101504809D01*
X191040093Y-101418649D01*
X191040086Y-101418645D01*
X190905379Y-101368403D01*
X190905372Y-101368401D01*
X190845844Y-101362000D01*
X190173000Y-101362000D01*
X190173000Y-102229514D01*
X190114179Y-102195554D01*
X189988207Y-102161800D01*
X189857793Y-102161800D01*
X189731821Y-102195554D01*
X189673000Y-102229514D01*
X189673000Y-101362000D01*
X189000155Y-101362000D01*
X188940627Y-101368401D01*
X188940620Y-101368403D01*
X188805913Y-101418645D01*
X188805906Y-101418649D01*
X188690812Y-101504809D01*
X188690809Y-101504812D01*
X188604649Y-101619906D01*
X188604645Y-101619913D01*
X188554403Y-101754620D01*
X188554401Y-101754627D01*
X188548000Y-101814155D01*
X185098499Y-101814155D01*
X185098499Y-101814129D01*
X185098498Y-101814123D01*
X185098497Y-101814116D01*
X185092091Y-101754517D01*
X185084111Y-101733122D01*
X185041797Y-101619671D01*
X185041793Y-101619664D01*
X184955547Y-101504455D01*
X184955544Y-101504452D01*
X184840335Y-101418206D01*
X184840328Y-101418202D01*
X184705482Y-101367908D01*
X184705483Y-101367908D01*
X184645883Y-101361501D01*
X184645881Y-101361500D01*
X184645873Y-101361500D01*
X184645864Y-101361500D01*
X182800129Y-101361500D01*
X182800123Y-101361501D01*
X182740516Y-101367908D01*
X182605671Y-101418202D01*
X182605664Y-101418206D01*
X182490455Y-101504452D01*
X182490452Y-101504455D01*
X182404206Y-101619664D01*
X182404202Y-101619671D01*
X182353908Y-101754517D01*
X182351338Y-101778426D01*
X182347501Y-101814123D01*
X182347500Y-101814135D01*
X182347500Y-103037500D01*
X182327815Y-103104539D01*
X182275011Y-103150294D01*
X182223500Y-103161500D01*
X181198098Y-103161500D01*
X181131059Y-103141815D01*
X181110417Y-103125181D01*
X179934819Y-101949583D01*
X179901334Y-101888260D01*
X179898500Y-101861902D01*
X179898500Y-101087097D01*
X179918185Y-101020058D01*
X179934819Y-100999416D01*
X182061279Y-98872957D01*
X183095081Y-97839155D01*
X184423001Y-97839155D01*
X184423001Y-98512000D01*
X185290515Y-98512000D01*
X185256555Y-98570821D01*
X185222801Y-98696793D01*
X185222801Y-98827207D01*
X185256555Y-98953179D01*
X185290515Y-99012000D01*
X184423001Y-99012000D01*
X184423001Y-99684844D01*
X184429402Y-99744372D01*
X184429404Y-99744379D01*
X184479646Y-99879086D01*
X184479650Y-99879093D01*
X184565810Y-99994187D01*
X184565813Y-99994190D01*
X184680907Y-100080350D01*
X184680914Y-100080354D01*
X184815621Y-100130596D01*
X184815628Y-100130598D01*
X184875156Y-100136999D01*
X184875173Y-100137000D01*
X186573001Y-100137000D01*
X186573001Y-99257300D01*
X187073001Y-99257300D01*
X187073001Y-100137000D01*
X188770829Y-100137000D01*
X188770845Y-100136999D01*
X188830373Y-100130598D01*
X188830380Y-100130596D01*
X188965087Y-100080354D01*
X188965094Y-100080350D01*
X189080188Y-99994190D01*
X189080191Y-99994187D01*
X189166351Y-99879093D01*
X189166355Y-99879086D01*
X189216597Y-99744379D01*
X189216599Y-99744372D01*
X189223000Y-99684844D01*
X189223001Y-99684827D01*
X189223001Y-99012000D01*
X188355487Y-99012000D01*
X188389447Y-98953179D01*
X188423201Y-98827207D01*
X188423201Y-98696793D01*
X188389447Y-98570821D01*
X188355487Y-98512000D01*
X189223001Y-98512000D01*
X189223001Y-97839172D01*
X189223000Y-97839155D01*
X189216599Y-97779627D01*
X189216597Y-97779620D01*
X189166355Y-97644913D01*
X189166351Y-97644906D01*
X189080191Y-97529812D01*
X189080188Y-97529809D01*
X188965094Y-97443649D01*
X188965087Y-97443645D01*
X188830380Y-97393403D01*
X188830373Y-97393401D01*
X188770845Y-97387000D01*
X187073001Y-97387000D01*
X187073001Y-98266700D01*
X186573001Y-98266700D01*
X186573001Y-97387000D01*
X184875156Y-97387000D01*
X184815628Y-97393401D01*
X184815621Y-97393403D01*
X184680914Y-97443645D01*
X184680907Y-97443649D01*
X184565813Y-97529809D01*
X184565810Y-97529812D01*
X184479650Y-97644906D01*
X184479646Y-97644913D01*
X184429404Y-97779620D01*
X184429402Y-97779627D01*
X184423001Y-97839155D01*
X183095081Y-97839155D01*
X183835417Y-97098819D01*
X183896740Y-97065334D01*
X183923098Y-97062500D01*
X187861331Y-97062500D01*
X187861347Y-97062501D01*
X187868943Y-97062501D01*
X188027054Y-97062501D01*
X188027057Y-97062501D01*
X188179785Y-97021577D01*
X188229904Y-96992639D01*
X188316716Y-96942520D01*
X188428520Y-96830716D01*
X188428520Y-96830714D01*
X188438728Y-96820507D01*
X188438729Y-96820504D01*
X189443520Y-95815716D01*
X189522577Y-95678784D01*
X189563501Y-95526057D01*
X189563501Y-95367942D01*
X189563501Y-95360347D01*
X189563500Y-95360329D01*
X189563500Y-95234938D01*
X189583185Y-95167899D01*
X189614612Y-95134621D01*
X189744096Y-95040546D01*
X189877546Y-94907096D01*
X189988477Y-94754413D01*
X190074157Y-94586256D01*
X190095069Y-94521894D01*
X190134507Y-94464219D01*
X190198865Y-94437021D01*
X190267712Y-94448936D01*
X190319187Y-94496180D01*
X190330929Y-94521892D01*
X190351843Y-94586256D01*
X190437523Y-94754413D01*
X190548454Y-94907096D01*
X190681904Y-95040546D01*
X190834587Y-95151477D01*
X191002744Y-95237157D01*
X191182233Y-95295477D01*
X191252134Y-95306548D01*
X191368632Y-95325000D01*
X191368637Y-95325000D01*
X191557368Y-95325000D01*
X191660920Y-95308598D01*
X191743767Y-95295477D01*
X191923256Y-95237157D01*
X192091413Y-95151477D01*
X192244096Y-95040546D01*
X192377546Y-94907096D01*
X192488477Y-94754413D01*
X192574157Y-94586256D01*
X192632477Y-94406767D01*
X192654409Y-94268294D01*
X192662000Y-94220368D01*
X192662000Y-94031631D01*
X192641922Y-93904867D01*
X192632477Y-93845233D01*
X192574157Y-93665744D01*
X192488477Y-93497587D01*
X192377546Y-93344904D01*
X192244096Y-93211454D01*
X192091413Y-93100523D01*
X191923256Y-93014843D01*
X191743767Y-92956523D01*
X191743765Y-92956522D01*
X191743763Y-92956522D01*
X191557368Y-92927000D01*
X191557363Y-92927000D01*
X191368637Y-92927000D01*
X191368632Y-92927000D01*
X191182236Y-92956522D01*
X191002741Y-93014844D01*
X190834586Y-93100523D01*
X190747475Y-93163813D01*
X190681904Y-93211454D01*
X190681902Y-93211456D01*
X190681901Y-93211456D01*
X190548456Y-93344901D01*
X190548456Y-93344902D01*
X190548454Y-93344904D01*
X190513839Y-93392548D01*
X190437523Y-93497586D01*
X190351844Y-93665739D01*
X190330931Y-93730105D01*
X190291493Y-93787780D01*
X190227134Y-93814978D01*
X190158288Y-93803063D01*
X190106812Y-93755819D01*
X190095069Y-93730105D01*
X190074157Y-93665744D01*
X190074155Y-93665741D01*
X190074155Y-93665739D01*
X190018665Y-93556835D01*
X189988477Y-93497587D01*
X189877546Y-93344904D01*
X189744096Y-93211454D01*
X189591413Y-93100523D01*
X189423256Y-93014843D01*
X189243767Y-92956523D01*
X189243765Y-92956522D01*
X189243763Y-92956522D01*
X189057368Y-92927000D01*
X189057363Y-92927000D01*
X188868637Y-92927000D01*
X188868632Y-92927000D01*
X188682236Y-92956522D01*
X188502741Y-93014844D01*
X188334586Y-93100523D01*
X188247475Y-93163813D01*
X188181904Y-93211454D01*
X188181902Y-93211456D01*
X188181901Y-93211456D01*
X188048456Y-93344901D01*
X188048456Y-93344902D01*
X188048454Y-93344904D01*
X188013839Y-93392548D01*
X187937523Y-93497586D01*
X187851844Y-93665739D01*
X187830931Y-93730105D01*
X187791493Y-93787780D01*
X187727134Y-93814978D01*
X187658288Y-93803063D01*
X187606812Y-93755819D01*
X187595069Y-93730105D01*
X187574157Y-93665744D01*
X187574155Y-93665741D01*
X187574155Y-93665739D01*
X187518665Y-93556835D01*
X187488477Y-93497587D01*
X187377546Y-93344904D01*
X187244096Y-93211454D01*
X187091413Y-93100523D01*
X186923256Y-93014843D01*
X186743767Y-92956523D01*
X186743765Y-92956522D01*
X186743763Y-92956522D01*
X186557368Y-92927000D01*
X186557363Y-92927000D01*
X186368637Y-92927000D01*
X186368632Y-92927000D01*
X186182236Y-92956522D01*
X186002741Y-93014844D01*
X185834586Y-93100523D01*
X185747475Y-93163813D01*
X185681904Y-93211454D01*
X185681902Y-93211456D01*
X185681901Y-93211456D01*
X185548456Y-93344901D01*
X185548456Y-93344902D01*
X185548454Y-93344904D01*
X185458439Y-93468799D01*
X185454380Y-93474386D01*
X185399050Y-93517051D01*
X185354062Y-93525500D01*
X183788057Y-93525500D01*
X183629942Y-93525500D01*
X183477215Y-93566423D01*
X183477214Y-93566423D01*
X183477212Y-93566424D01*
X183477209Y-93566425D01*
X183427096Y-93595359D01*
X183427095Y-93595360D01*
X183383689Y-93620420D01*
X183340285Y-93645479D01*
X183340282Y-93645481D01*
X177884680Y-99101084D01*
X177823357Y-99134569D01*
X177753665Y-99129585D01*
X177697732Y-99087713D01*
X177673315Y-99022249D01*
X177672999Y-99013403D01*
X177672999Y-98904629D01*
X177672998Y-98904623D01*
X177672997Y-98904616D01*
X177666591Y-98845017D01*
X177659948Y-98827207D01*
X177616297Y-98710171D01*
X177616293Y-98710164D01*
X177530047Y-98594955D01*
X177530044Y-98594952D01*
X177407731Y-98503388D01*
X177409532Y-98500980D01*
X177370766Y-98462218D01*
X177355910Y-98393946D01*
X177379277Y-98329900D01*
X177451434Y-98230584D01*
X177560586Y-98016360D01*
X177634888Y-97787684D01*
X177672500Y-97550216D01*
X177672500Y-97309783D01*
X177634888Y-97072315D01*
X177560586Y-96843639D01*
X177451434Y-96629415D01*
X177387345Y-96541206D01*
X177387345Y-96541205D01*
X176772828Y-97155722D01*
X176752039Y-97105531D01*
X176677074Y-96993338D01*
X176581662Y-96897926D01*
X176469469Y-96822961D01*
X176419275Y-96802170D01*
X177036731Y-96184715D01*
X177048789Y-96127317D01*
X177085155Y-96085648D01*
X177140425Y-96045493D01*
X177310493Y-95875425D01*
X177451863Y-95680847D01*
X177561053Y-95466548D01*
X177635376Y-95237808D01*
X177657587Y-95097573D01*
X177673000Y-95000261D01*
X177673000Y-94759738D01*
X177640104Y-94552047D01*
X177635376Y-94522192D01*
X177561053Y-94293452D01*
X177451863Y-94079153D01*
X177310493Y-93884575D01*
X177140425Y-93714507D01*
X176945847Y-93573137D01*
X176753264Y-93475012D01*
X176731550Y-93463948D01*
X176731549Y-93463947D01*
X176731548Y-93463947D01*
X176502808Y-93389624D01*
X176502806Y-93389623D01*
X176502804Y-93389623D01*
X176265261Y-93352000D01*
X176265256Y-93352000D01*
X176024744Y-93352000D01*
X176024739Y-93352000D01*
X175787195Y-93389623D01*
X175786339Y-93389901D01*
X175611822Y-93446606D01*
X175558449Y-93463948D01*
X175344152Y-93573137D01*
X175241016Y-93648071D01*
X175149575Y-93714507D01*
X175149573Y-93714509D01*
X175149572Y-93714509D01*
X174979509Y-93884572D01*
X174979509Y-93884573D01*
X174979507Y-93884575D01*
X174919160Y-93967635D01*
X174838137Y-94079152D01*
X174728948Y-94293449D01*
X174728947Y-94293451D01*
X174728947Y-94293452D01*
X174720183Y-94320426D01*
X174654623Y-94522195D01*
X174617000Y-94759738D01*
X154543910Y-94759738D01*
X154511015Y-94552049D01*
X154465067Y-94410634D01*
X154442896Y-94342396D01*
X154442895Y-94342393D01*
X154395817Y-94250000D01*
X154342815Y-94145978D01*
X154302287Y-94090196D01*
X154213247Y-93967641D01*
X154213243Y-93967636D01*
X154057363Y-93811756D01*
X154057358Y-93811752D01*
X153879025Y-93682187D01*
X153879024Y-93682186D01*
X153879022Y-93682185D01*
X153812066Y-93648069D01*
X153682606Y-93582104D01*
X153682603Y-93582103D01*
X153472952Y-93513985D01*
X153302884Y-93487049D01*
X153255222Y-93479500D01*
X153034778Y-93479500D01*
X152987122Y-93487048D01*
X152817047Y-93513985D01*
X152607396Y-93582103D01*
X152607393Y-93582104D01*
X152410974Y-93682187D01*
X152232641Y-93811752D01*
X152232636Y-93811756D01*
X152182463Y-93861929D01*
X152121140Y-93895413D01*
X152051448Y-93890428D01*
X151995515Y-93848557D01*
X151978601Y-93817580D01*
X151948797Y-93737671D01*
X151948793Y-93737664D01*
X151862547Y-93622455D01*
X151862544Y-93622452D01*
X151747335Y-93536206D01*
X151747328Y-93536202D01*
X151612482Y-93485908D01*
X151612483Y-93485908D01*
X151552883Y-93479501D01*
X151552881Y-93479500D01*
X151552873Y-93479500D01*
X151552864Y-93479500D01*
X149657129Y-93479500D01*
X149657123Y-93479501D01*
X149597516Y-93485908D01*
X149462671Y-93536202D01*
X149462664Y-93536206D01*
X149347455Y-93622452D01*
X149347452Y-93622455D01*
X149261206Y-93737664D01*
X149261202Y-93737671D01*
X149210908Y-93872517D01*
X149204501Y-93932116D01*
X149204500Y-93932135D01*
X149204500Y-94155500D01*
X149184815Y-94222539D01*
X149132011Y-94268294D01*
X149080500Y-94279500D01*
X146776670Y-94279500D01*
X146776654Y-94279499D01*
X146769058Y-94279499D01*
X146610943Y-94279499D01*
X146534579Y-94299961D01*
X146458214Y-94320423D01*
X146458209Y-94320426D01*
X146321290Y-94399475D01*
X146321282Y-94399481D01*
X139956082Y-100764681D01*
X139894759Y-100798166D01*
X139868401Y-100801000D01*
X138823629Y-100801000D01*
X138823623Y-100801001D01*
X138764016Y-100807408D01*
X138629171Y-100857702D01*
X138629164Y-100857706D01*
X138513955Y-100943952D01*
X138513952Y-100943955D01*
X138427706Y-101059164D01*
X138427702Y-101059171D01*
X138377408Y-101194017D01*
X138371001Y-101253616D01*
X138371000Y-101253635D01*
X136877500Y-101253635D01*
X136877500Y-95205060D01*
X136877501Y-95205047D01*
X136877501Y-95036944D01*
X136867672Y-95000261D01*
X136836577Y-94884216D01*
X136770989Y-94770613D01*
X136754516Y-94702712D01*
X136755903Y-94689215D01*
X136770328Y-94598144D01*
X136777500Y-94552861D01*
X136777500Y-94371139D01*
X136749072Y-94191654D01*
X136749071Y-94191650D01*
X136749071Y-94191649D01*
X136692918Y-94018828D01*
X136692916Y-94018825D01*
X136683617Y-94000575D01*
X136610417Y-93856910D01*
X136599973Y-93842535D01*
X140528300Y-93842535D01*
X140528300Y-95157470D01*
X140528301Y-95157476D01*
X140534708Y-95217083D01*
X140585002Y-95351928D01*
X140585006Y-95351935D01*
X140671252Y-95467144D01*
X140671255Y-95467147D01*
X140786464Y-95553393D01*
X140786471Y-95553397D01*
X140921317Y-95603691D01*
X140921316Y-95603691D01*
X140928244Y-95604435D01*
X140980927Y-95610100D01*
X142295872Y-95610099D01*
X142355483Y-95603691D01*
X142490331Y-95553396D01*
X142605546Y-95467146D01*
X142691796Y-95351931D01*
X142742091Y-95217083D01*
X142744459Y-95195058D01*
X142748499Y-95157486D01*
X142748499Y-95157482D01*
X142748500Y-95157473D01*
X142748499Y-95094305D01*
X142768183Y-95027269D01*
X142784818Y-95006626D01*
X143289400Y-94502045D01*
X143289400Y-94546816D01*
X143313634Y-94637256D01*
X143360450Y-94718343D01*
X143426657Y-94784550D01*
X143507744Y-94831366D01*
X143598184Y-94855600D01*
X143642953Y-94855600D01*
X143055388Y-95443162D01*
X143055389Y-95443163D01*
X143063433Y-95449008D01*
X143063445Y-95449015D01*
X143219061Y-95528307D01*
X143219060Y-95528307D01*
X143385166Y-95582277D01*
X143557668Y-95609600D01*
X143732332Y-95609600D01*
X143904833Y-95582277D01*
X144070938Y-95528307D01*
X144226554Y-95449016D01*
X144226559Y-95449012D01*
X144234610Y-95443162D01*
X143647048Y-94855600D01*
X143691816Y-94855600D01*
X143782256Y-94831366D01*
X143863343Y-94784550D01*
X143929550Y-94718343D01*
X143976366Y-94637256D01*
X144000600Y-94546816D01*
X144000600Y-94502047D01*
X144588162Y-95089609D01*
X144594012Y-95081559D01*
X144594016Y-95081554D01*
X144673307Y-94925938D01*
X144727277Y-94759833D01*
X144754600Y-94587332D01*
X144754600Y-94412667D01*
X144727277Y-94240166D01*
X144673307Y-94074061D01*
X144594015Y-93918445D01*
X144594008Y-93918433D01*
X144588163Y-93910389D01*
X144588162Y-93910388D01*
X144000600Y-94497951D01*
X144000600Y-94453184D01*
X143976366Y-94362744D01*
X143929550Y-94281657D01*
X143863343Y-94215450D01*
X143782256Y-94168634D01*
X143691816Y-94144400D01*
X143647047Y-94144400D01*
X144234610Y-93556837D01*
X144234609Y-93556836D01*
X144226556Y-93550985D01*
X144070936Y-93471691D01*
X143904833Y-93417722D01*
X143732332Y-93390400D01*
X143557668Y-93390400D01*
X143385166Y-93417722D01*
X143219061Y-93471692D01*
X143063443Y-93550984D01*
X143055389Y-93556835D01*
X143055389Y-93556836D01*
X143642954Y-94144400D01*
X143598184Y-94144400D01*
X143507744Y-94168634D01*
X143426657Y-94215450D01*
X143360450Y-94281657D01*
X143313634Y-94362744D01*
X143289400Y-94453184D01*
X143289400Y-94497953D01*
X142784818Y-93993371D01*
X142751333Y-93932048D01*
X142748499Y-93905690D01*
X142748499Y-93842529D01*
X142748498Y-93842523D01*
X142748497Y-93842516D01*
X142742091Y-93782917D01*
X142733644Y-93760270D01*
X142691797Y-93648071D01*
X142691793Y-93648064D01*
X142605547Y-93532855D01*
X142605544Y-93532852D01*
X142490335Y-93446606D01*
X142490328Y-93446602D01*
X142355482Y-93396308D01*
X142355483Y-93396308D01*
X142295883Y-93389901D01*
X142295881Y-93389900D01*
X142295873Y-93389900D01*
X142295864Y-93389900D01*
X140980929Y-93389900D01*
X140980923Y-93389901D01*
X140921316Y-93396308D01*
X140786471Y-93446602D01*
X140786464Y-93446606D01*
X140671255Y-93532852D01*
X140671252Y-93532855D01*
X140585006Y-93648064D01*
X140585002Y-93648071D01*
X140534708Y-93782917D01*
X140531026Y-93817172D01*
X140528301Y-93842523D01*
X140528300Y-93842535D01*
X136599973Y-93842535D01*
X136503603Y-93709894D01*
X136375106Y-93581397D01*
X136228090Y-93474583D01*
X136066174Y-93392083D01*
X136066171Y-93392081D01*
X135893348Y-93335928D01*
X135773689Y-93316976D01*
X135713861Y-93307500D01*
X135532139Y-93307500D01*
X135472310Y-93316976D01*
X135352652Y-93335928D01*
X135352649Y-93335928D01*
X135179828Y-93392081D01*
X135179825Y-93392083D01*
X135017909Y-93474583D01*
X134972174Y-93507812D01*
X134870894Y-93581397D01*
X134870892Y-93581399D01*
X134870891Y-93581399D01*
X134742396Y-93709894D01*
X134723317Y-93736155D01*
X134667986Y-93778820D01*
X134598373Y-93784798D01*
X134536578Y-93752191D01*
X134522683Y-93736155D01*
X134503603Y-93709894D01*
X134375108Y-93581399D01*
X134375106Y-93581397D01*
X134228090Y-93474583D01*
X134066174Y-93392083D01*
X134066171Y-93392081D01*
X133893348Y-93335928D01*
X133773689Y-93316976D01*
X133713861Y-93307500D01*
X133532139Y-93307500D01*
X133472310Y-93316976D01*
X133352652Y-93335928D01*
X133352649Y-93335928D01*
X133179828Y-93392081D01*
X133179825Y-93392083D01*
X133017909Y-93474583D01*
X132972174Y-93507812D01*
X132870894Y-93581397D01*
X132870892Y-93581399D01*
X132870891Y-93581399D01*
X132742396Y-93709894D01*
X132723317Y-93736155D01*
X132667986Y-93778820D01*
X132598373Y-93784798D01*
X132536578Y-93752191D01*
X132522683Y-93736155D01*
X132503603Y-93709894D01*
X132375108Y-93581399D01*
X132375106Y-93581397D01*
X132228090Y-93474583D01*
X132066174Y-93392083D01*
X132066171Y-93392081D01*
X131893348Y-93335928D01*
X131773689Y-93316976D01*
X131713861Y-93307500D01*
X131532139Y-93307500D01*
X131472310Y-93316976D01*
X131352652Y-93335928D01*
X131352649Y-93335928D01*
X131179828Y-93392081D01*
X131179825Y-93392083D01*
X131017909Y-93474583D01*
X130972174Y-93507812D01*
X130870894Y-93581397D01*
X130870892Y-93581399D01*
X130870891Y-93581399D01*
X130742396Y-93709894D01*
X130723317Y-93736155D01*
X130667986Y-93778820D01*
X130598373Y-93784798D01*
X130536578Y-93752191D01*
X130522683Y-93736155D01*
X130503603Y-93709894D01*
X130375108Y-93581399D01*
X130375106Y-93581397D01*
X130228090Y-93474583D01*
X130066174Y-93392083D01*
X130066171Y-93392081D01*
X129893348Y-93335928D01*
X129773689Y-93316976D01*
X129713861Y-93307500D01*
X129532139Y-93307500D01*
X129472310Y-93316976D01*
X129352652Y-93335928D01*
X129352649Y-93335928D01*
X129179828Y-93392081D01*
X129179825Y-93392083D01*
X129017909Y-93474583D01*
X128972174Y-93507812D01*
X128870894Y-93581397D01*
X128870892Y-93581399D01*
X128870891Y-93581399D01*
X128742396Y-93709894D01*
X128723317Y-93736155D01*
X128667986Y-93778820D01*
X128598373Y-93784798D01*
X128536578Y-93752191D01*
X128522683Y-93736155D01*
X128503603Y-93709894D01*
X128375108Y-93581399D01*
X128375106Y-93581397D01*
X128228090Y-93474583D01*
X128066174Y-93392083D01*
X128066171Y-93392081D01*
X127893348Y-93335928D01*
X127773689Y-93316976D01*
X127713861Y-93307500D01*
X127532139Y-93307500D01*
X127472310Y-93316976D01*
X127352652Y-93335928D01*
X127352649Y-93335928D01*
X127179828Y-93392081D01*
X127179825Y-93392083D01*
X127017909Y-93474583D01*
X126972174Y-93507812D01*
X126870894Y-93581397D01*
X126870892Y-93581399D01*
X126870891Y-93581399D01*
X126742396Y-93709894D01*
X126723317Y-93736155D01*
X126667986Y-93778820D01*
X126598373Y-93784798D01*
X126536578Y-93752191D01*
X126522683Y-93736155D01*
X126503603Y-93709894D01*
X126375108Y-93581399D01*
X126375106Y-93581397D01*
X126228090Y-93474583D01*
X126066174Y-93392083D01*
X126066171Y-93392081D01*
X125893348Y-93335928D01*
X125773689Y-93316976D01*
X125713861Y-93307500D01*
X125532139Y-93307500D01*
X125472310Y-93316976D01*
X125352652Y-93335928D01*
X125352649Y-93335928D01*
X125179828Y-93392081D01*
X125179825Y-93392083D01*
X125017909Y-93474583D01*
X124972174Y-93507812D01*
X124870894Y-93581397D01*
X124870892Y-93581399D01*
X124870891Y-93581399D01*
X124742399Y-93709891D01*
X124742392Y-93709900D01*
X124685571Y-93788106D01*
X124630241Y-93830772D01*
X124603896Y-93834656D01*
X124023000Y-94415552D01*
X124023000Y-94409339D01*
X123995741Y-94307606D01*
X123943080Y-94216394D01*
X123868606Y-94141920D01*
X123777394Y-94089259D01*
X123675661Y-94062000D01*
X123669447Y-94062000D01*
X124244396Y-93487049D01*
X124244395Y-93487048D01*
X124227834Y-93475014D01*
X124227830Y-93475012D01*
X124065984Y-93392548D01*
X123893225Y-93336415D01*
X123713821Y-93308000D01*
X123532179Y-93308000D01*
X123352774Y-93336415D01*
X123180015Y-93392548D01*
X123018170Y-93475012D01*
X123018161Y-93475018D01*
X123001603Y-93487048D01*
X123001602Y-93487049D01*
X123576554Y-94062000D01*
X123570339Y-94062000D01*
X123468606Y-94089259D01*
X123377394Y-94141920D01*
X123302920Y-94216394D01*
X123250259Y-94307606D01*
X123223000Y-94409339D01*
X123223000Y-94415553D01*
X122648049Y-93840602D01*
X122648048Y-93840603D01*
X122636018Y-93857161D01*
X122636012Y-93857170D01*
X122553548Y-94019015D01*
X122497415Y-94191774D01*
X122469000Y-94371178D01*
X122469000Y-94552821D01*
X122497415Y-94732225D01*
X122553548Y-94904984D01*
X122636012Y-95066830D01*
X122636014Y-95066834D01*
X122648048Y-95083395D01*
X122648049Y-95083396D01*
X123223000Y-94508445D01*
X123223000Y-94514661D01*
X123250259Y-94616394D01*
X123302920Y-94707606D01*
X123377394Y-94782080D01*
X123468606Y-94834741D01*
X123570339Y-94862000D01*
X123576554Y-94862000D01*
X123001602Y-95436949D01*
X123001603Y-95436950D01*
X123018165Y-95448985D01*
X123018179Y-95448993D01*
X123180012Y-95531450D01*
X123352774Y-95587584D01*
X123532179Y-95616000D01*
X123713821Y-95616000D01*
X123893225Y-95587584D01*
X124065984Y-95531451D01*
X124227831Y-95448986D01*
X124244396Y-95436949D01*
X123669447Y-94862000D01*
X123675661Y-94862000D01*
X123777394Y-94834741D01*
X123868606Y-94782080D01*
X123943080Y-94707606D01*
X123995741Y-94616394D01*
X124023000Y-94514661D01*
X124023000Y-94508446D01*
X124606145Y-95091592D01*
X124643902Y-95099524D01*
X124685568Y-95135888D01*
X124742397Y-95214106D01*
X124870894Y-95342603D01*
X124971385Y-95415614D01*
X125014051Y-95470944D01*
X125022500Y-95515932D01*
X125022500Y-98984229D01*
X125002815Y-99051268D01*
X124950011Y-99097023D01*
X124880853Y-99106967D01*
X124879103Y-99106702D01*
X124707352Y-99079500D01*
X124502648Y-99079500D01*
X124478329Y-99083351D01*
X124300465Y-99111522D01*
X124105776Y-99174781D01*
X123923386Y-99267715D01*
X123757786Y-99388028D01*
X123613028Y-99532786D01*
X123492715Y-99698386D01*
X123445485Y-99791080D01*
X123397510Y-99841876D01*
X123329689Y-99858671D01*
X123263554Y-99836134D01*
X123224515Y-99791080D01*
X123223883Y-99789840D01*
X123177287Y-99698390D01*
X123145092Y-99654077D01*
X123056971Y-99532786D01*
X122912213Y-99388028D01*
X122746613Y-99267715D01*
X122746612Y-99267714D01*
X122746610Y-99267713D01*
X122689653Y-99238691D01*
X122564223Y-99174781D01*
X122369534Y-99111522D01*
X122194488Y-99083798D01*
X122167352Y-99079500D01*
X121962648Y-99079500D01*
X121938329Y-99083351D01*
X121760465Y-99111522D01*
X121565776Y-99174781D01*
X121383386Y-99267715D01*
X121217786Y-99388028D01*
X121073028Y-99532786D01*
X120952715Y-99698386D01*
X120905485Y-99791080D01*
X120857510Y-99841876D01*
X120789689Y-99858671D01*
X120723554Y-99836134D01*
X120684515Y-99791080D01*
X120683883Y-99789840D01*
X120637287Y-99698390D01*
X120605092Y-99654077D01*
X120516971Y-99532786D01*
X120372213Y-99388028D01*
X120206613Y-99267715D01*
X120206612Y-99267714D01*
X120206610Y-99267713D01*
X120149653Y-99238691D01*
X120024223Y-99174781D01*
X119829534Y-99111522D01*
X119654488Y-99083798D01*
X119627352Y-99079500D01*
X119422648Y-99079500D01*
X119398329Y-99083351D01*
X119220465Y-99111522D01*
X119025776Y-99174781D01*
X118843386Y-99267715D01*
X118677786Y-99388028D01*
X118533028Y-99532786D01*
X118412713Y-99698388D01*
X118365203Y-99791630D01*
X118317228Y-99842426D01*
X118249407Y-99859220D01*
X118183272Y-99836682D01*
X118144234Y-99791628D01*
X118096861Y-99698652D01*
X118064474Y-99654077D01*
X118064474Y-99654076D01*
X117385000Y-100333551D01*
X117385000Y-100327339D01*
X117357741Y-100225606D01*
X117305080Y-100134394D01*
X117230606Y-100059920D01*
X117139394Y-100007259D01*
X117037661Y-99980000D01*
X117031446Y-99980000D01*
X117710922Y-99300524D01*
X117710921Y-99300523D01*
X117666359Y-99268147D01*
X117666350Y-99268141D01*
X117484031Y-99175244D01*
X117289417Y-99112009D01*
X117087317Y-99080000D01*
X116882683Y-99080000D01*
X116680582Y-99112009D01*
X116485968Y-99175244D01*
X116303644Y-99268143D01*
X116259077Y-99300523D01*
X116259077Y-99300524D01*
X116938554Y-99980000D01*
X116932339Y-99980000D01*
X116830606Y-100007259D01*
X116739394Y-100059920D01*
X116664920Y-100134394D01*
X116612259Y-100225606D01*
X116585000Y-100327339D01*
X116585000Y-100333553D01*
X115905524Y-99654077D01*
X115905523Y-99654077D01*
X115873143Y-99698644D01*
X115825765Y-99791630D01*
X115777790Y-99842426D01*
X115709969Y-99859221D01*
X115643834Y-99836683D01*
X115604795Y-99791630D01*
X115604515Y-99791080D01*
X115557287Y-99698390D01*
X115557285Y-99698387D01*
X115557284Y-99698385D01*
X115436971Y-99532786D01*
X115292213Y-99388028D01*
X115126610Y-99267712D01*
X115113200Y-99260879D01*
X115062406Y-99212903D01*
X115045500Y-99150397D01*
X115045500Y-97473059D01*
X115045501Y-97473046D01*
X115045501Y-97304945D01*
X115045501Y-97304943D01*
X115004577Y-97152215D01*
X114977624Y-97105531D01*
X114958633Y-97072638D01*
X114958631Y-97072636D01*
X114952780Y-97062501D01*
X114925520Y-97015284D01*
X114813716Y-96903480D01*
X114813713Y-96903478D01*
X112692860Y-94782625D01*
X112659375Y-94721302D01*
X112658068Y-94675546D01*
X112670328Y-94598144D01*
X112677500Y-94552861D01*
X112677500Y-94371139D01*
X112674616Y-94352928D01*
X114425750Y-94352928D01*
X114425750Y-94534571D01*
X114454165Y-94713975D01*
X114510298Y-94886734D01*
X114592762Y-95048580D01*
X114592764Y-95048584D01*
X114604798Y-95065145D01*
X114604799Y-95065146D01*
X115179750Y-94490195D01*
X115179750Y-94496411D01*
X115207009Y-94598144D01*
X115259670Y-94689356D01*
X115334144Y-94763830D01*
X115425356Y-94816491D01*
X115527089Y-94843750D01*
X115533304Y-94843750D01*
X114958352Y-95418699D01*
X114958353Y-95418700D01*
X114974915Y-95430735D01*
X114974929Y-95430743D01*
X115136762Y-95513200D01*
X115309524Y-95569334D01*
X115488929Y-95597750D01*
X115670571Y-95597750D01*
X115849975Y-95569334D01*
X116022734Y-95513201D01*
X116184581Y-95430736D01*
X116201146Y-95418699D01*
X115626197Y-94843750D01*
X115632411Y-94843750D01*
X115734144Y-94816491D01*
X115825356Y-94763830D01*
X115899830Y-94689356D01*
X115952491Y-94598144D01*
X115979750Y-94496411D01*
X115979750Y-94490196D01*
X116554699Y-95065145D01*
X116570023Y-95063940D01*
X116589476Y-95063940D01*
X116604799Y-95065145D01*
X117179750Y-94490195D01*
X117179750Y-94496411D01*
X117207009Y-94598144D01*
X117259670Y-94689356D01*
X117334144Y-94763830D01*
X117425356Y-94816491D01*
X117527089Y-94843750D01*
X117533304Y-94843750D01*
X116958352Y-95418699D01*
X116958353Y-95418700D01*
X116974915Y-95430735D01*
X116974929Y-95430743D01*
X117136762Y-95513200D01*
X117309524Y-95569334D01*
X117488929Y-95597750D01*
X117670571Y-95597750D01*
X117849975Y-95569334D01*
X118022734Y-95513201D01*
X118184581Y-95430736D01*
X118201146Y-95418699D01*
X117626197Y-94843750D01*
X117632411Y-94843750D01*
X117734144Y-94816491D01*
X117825356Y-94763830D01*
X117899830Y-94689356D01*
X117952491Y-94598144D01*
X117979750Y-94496411D01*
X117979750Y-94490196D01*
X118562896Y-95073342D01*
X118600652Y-95081274D01*
X118642318Y-95117638D01*
X118699147Y-95195856D01*
X118827644Y-95324353D01*
X118974660Y-95431167D01*
X119136576Y-95513667D01*
X119136578Y-95513668D01*
X119258850Y-95553396D01*
X119309404Y-95569822D01*
X119488889Y-95598250D01*
X119488890Y-95598250D01*
X119670610Y-95598250D01*
X119670611Y-95598250D01*
X119850096Y-95569822D01*
X119850099Y-95569821D01*
X119850100Y-95569821D01*
X120022921Y-95513668D01*
X120022921Y-95513667D01*
X120022924Y-95513667D01*
X120184840Y-95431167D01*
X120331856Y-95324353D01*
X120460353Y-95195856D01*
X120567167Y-95048840D01*
X120649667Y-94886924D01*
X120672552Y-94816491D01*
X120705821Y-94714100D01*
X120705821Y-94714099D01*
X120705822Y-94714096D01*
X120734250Y-94534611D01*
X120734250Y-94352889D01*
X120705822Y-94173404D01*
X120705821Y-94173400D01*
X120705821Y-94173399D01*
X120649668Y-94000578D01*
X120649666Y-94000575D01*
X120645996Y-93993371D01*
X120567167Y-93838660D01*
X120460353Y-93691644D01*
X120331856Y-93563147D01*
X120184840Y-93456333D01*
X120022924Y-93373833D01*
X120022921Y-93373831D01*
X119850098Y-93317678D01*
X119730439Y-93298726D01*
X119670611Y-93289250D01*
X119488889Y-93289250D01*
X119429060Y-93298726D01*
X119309402Y-93317678D01*
X119309399Y-93317678D01*
X119136578Y-93373831D01*
X119136575Y-93373833D01*
X118974659Y-93456333D01*
X118895309Y-93513985D01*
X118827644Y-93563147D01*
X118827642Y-93563149D01*
X118827641Y-93563149D01*
X118699149Y-93691641D01*
X118699142Y-93691650D01*
X118642321Y-93769856D01*
X118586991Y-93812522D01*
X118560646Y-93816406D01*
X117979750Y-94397302D01*
X117979750Y-94391089D01*
X117952491Y-94289356D01*
X117899830Y-94198144D01*
X117825356Y-94123670D01*
X117734144Y-94071009D01*
X117632411Y-94043750D01*
X117626197Y-94043750D01*
X118201146Y-93468799D01*
X118201145Y-93468798D01*
X118184584Y-93456764D01*
X118184580Y-93456762D01*
X118022734Y-93374298D01*
X117849975Y-93318165D01*
X117670571Y-93289750D01*
X117488929Y-93289750D01*
X117309524Y-93318165D01*
X117136765Y-93374298D01*
X116974920Y-93456762D01*
X116974911Y-93456768D01*
X116958353Y-93468798D01*
X116958352Y-93468799D01*
X117533304Y-94043750D01*
X117527089Y-94043750D01*
X117425356Y-94071009D01*
X117334144Y-94123670D01*
X117259670Y-94198144D01*
X117207009Y-94289356D01*
X117179750Y-94391089D01*
X117179750Y-94397303D01*
X116604799Y-93822352D01*
X116589476Y-93823558D01*
X116570023Y-93823558D01*
X116554699Y-93822352D01*
X115979750Y-94397302D01*
X115979750Y-94391089D01*
X115952491Y-94289356D01*
X115899830Y-94198144D01*
X115825356Y-94123670D01*
X115734144Y-94071009D01*
X115632411Y-94043750D01*
X115626197Y-94043750D01*
X116201146Y-93468799D01*
X116201145Y-93468798D01*
X116184584Y-93456764D01*
X116184580Y-93456762D01*
X116022734Y-93374298D01*
X115849975Y-93318165D01*
X115670571Y-93289750D01*
X115488929Y-93289750D01*
X115309524Y-93318165D01*
X115136765Y-93374298D01*
X114974920Y-93456762D01*
X114974911Y-93456768D01*
X114958353Y-93468798D01*
X114958352Y-93468799D01*
X115533304Y-94043750D01*
X115527089Y-94043750D01*
X115425356Y-94071009D01*
X115334144Y-94123670D01*
X115259670Y-94198144D01*
X115207009Y-94289356D01*
X115179750Y-94391089D01*
X115179750Y-94397303D01*
X114604799Y-93822352D01*
X114604798Y-93822353D01*
X114592768Y-93838911D01*
X114592762Y-93838920D01*
X114510298Y-94000765D01*
X114454165Y-94173524D01*
X114425750Y-94352928D01*
X112674616Y-94352928D01*
X112649072Y-94191654D01*
X112649071Y-94191650D01*
X112649071Y-94191649D01*
X112592918Y-94018828D01*
X112592916Y-94018825D01*
X112583618Y-94000575D01*
X112510417Y-93856910D01*
X112403603Y-93709894D01*
X112275106Y-93581397D01*
X112128090Y-93474583D01*
X111966174Y-93392083D01*
X111966171Y-93392081D01*
X111793348Y-93335928D01*
X111673689Y-93316976D01*
X111613861Y-93307500D01*
X111432139Y-93307500D01*
X111372310Y-93316976D01*
X111252652Y-93335928D01*
X111252649Y-93335928D01*
X111079828Y-93392081D01*
X111079825Y-93392083D01*
X110917909Y-93474583D01*
X110872174Y-93507812D01*
X110770894Y-93581397D01*
X110770892Y-93581399D01*
X110770891Y-93581399D01*
X110642396Y-93709894D01*
X110623317Y-93736155D01*
X110567986Y-93778820D01*
X110498373Y-93784798D01*
X110436578Y-93752191D01*
X110422683Y-93736155D01*
X110403603Y-93709894D01*
X110275108Y-93581399D01*
X110275106Y-93581397D01*
X110128090Y-93474583D01*
X109966174Y-93392083D01*
X109966171Y-93392081D01*
X109793348Y-93335928D01*
X109673689Y-93316976D01*
X109613861Y-93307500D01*
X109432139Y-93307500D01*
X109372310Y-93316976D01*
X109252652Y-93335928D01*
X109252649Y-93335928D01*
X109079828Y-93392081D01*
X109079825Y-93392083D01*
X108917909Y-93474583D01*
X108872174Y-93507812D01*
X108770894Y-93581397D01*
X108770892Y-93581399D01*
X108770891Y-93581399D01*
X108642396Y-93709894D01*
X108623317Y-93736155D01*
X108567986Y-93778820D01*
X108498373Y-93784798D01*
X108436578Y-93752191D01*
X108422683Y-93736155D01*
X108403603Y-93709894D01*
X108275108Y-93581399D01*
X108275106Y-93581397D01*
X108128090Y-93474583D01*
X107966174Y-93392083D01*
X107966171Y-93392081D01*
X107793348Y-93335928D01*
X107673689Y-93316976D01*
X107613861Y-93307500D01*
X107432139Y-93307500D01*
X107372310Y-93316976D01*
X107252652Y-93335928D01*
X107252649Y-93335928D01*
X107079828Y-93392081D01*
X107079825Y-93392083D01*
X106917909Y-93474583D01*
X106872174Y-93507812D01*
X106770894Y-93581397D01*
X106770892Y-93581399D01*
X106770891Y-93581399D01*
X106642396Y-93709894D01*
X106623317Y-93736155D01*
X106567986Y-93778820D01*
X106498373Y-93784798D01*
X106436578Y-93752191D01*
X106422683Y-93736155D01*
X106403603Y-93709894D01*
X106275108Y-93581399D01*
X106275106Y-93581397D01*
X106128090Y-93474583D01*
X105966174Y-93392083D01*
X105966171Y-93392081D01*
X105793348Y-93335928D01*
X105673689Y-93316976D01*
X105613861Y-93307500D01*
X105432139Y-93307500D01*
X105372310Y-93316976D01*
X105252652Y-93335928D01*
X105252649Y-93335928D01*
X105079828Y-93392081D01*
X105079825Y-93392083D01*
X104917909Y-93474583D01*
X104872174Y-93507812D01*
X104770894Y-93581397D01*
X104770892Y-93581399D01*
X104770891Y-93581399D01*
X104642396Y-93709894D01*
X104623317Y-93736155D01*
X104567986Y-93778820D01*
X104498373Y-93784798D01*
X104436578Y-93752191D01*
X104422683Y-93736155D01*
X104403603Y-93709894D01*
X104275108Y-93581399D01*
X104275106Y-93581397D01*
X104128090Y-93474583D01*
X103966174Y-93392083D01*
X103966171Y-93392081D01*
X103793348Y-93335928D01*
X103673689Y-93316976D01*
X103613861Y-93307500D01*
X103432139Y-93307500D01*
X103372310Y-93316976D01*
X103252652Y-93335928D01*
X103252649Y-93335928D01*
X103079828Y-93392081D01*
X103079825Y-93392083D01*
X102917909Y-93474583D01*
X102872174Y-93507812D01*
X102770894Y-93581397D01*
X102770892Y-93581399D01*
X102770891Y-93581399D01*
X102642396Y-93709894D01*
X102623317Y-93736155D01*
X102567986Y-93778820D01*
X102498373Y-93784798D01*
X102436578Y-93752191D01*
X102422683Y-93736155D01*
X102403603Y-93709894D01*
X102275108Y-93581399D01*
X102275106Y-93581397D01*
X102128090Y-93474583D01*
X101966174Y-93392083D01*
X101966171Y-93392081D01*
X101793348Y-93335928D01*
X101673689Y-93316976D01*
X101613861Y-93307500D01*
X101432139Y-93307500D01*
X101372310Y-93316976D01*
X101252652Y-93335928D01*
X101252649Y-93335928D01*
X101079828Y-93392081D01*
X101079825Y-93392083D01*
X100917909Y-93474583D01*
X100872174Y-93507812D01*
X100770894Y-93581397D01*
X100770892Y-93581399D01*
X100770891Y-93581399D01*
X100642399Y-93709891D01*
X100642399Y-93709892D01*
X100642397Y-93709894D01*
X100605795Y-93760272D01*
X100535583Y-93856909D01*
X100453083Y-94018825D01*
X100453081Y-94018828D01*
X100396928Y-94191649D01*
X100396928Y-94191652D01*
X100368500Y-94371139D01*
X100368500Y-94552860D01*
X100396928Y-94732347D01*
X100396928Y-94732350D01*
X100453081Y-94905171D01*
X100453083Y-94905174D01*
X100535583Y-95067090D01*
X100642397Y-95214106D01*
X100770894Y-95342603D01*
X100871385Y-95415614D01*
X100914051Y-95470944D01*
X100922500Y-95515932D01*
X100922500Y-99311952D01*
X100902815Y-99378991D01*
X100886182Y-99399633D01*
X100753027Y-99532788D01*
X100632715Y-99698386D01*
X100539781Y-99880776D01*
X100476522Y-100075465D01*
X100444500Y-100277648D01*
X100444500Y-100482351D01*
X100476522Y-100684534D01*
X100539781Y-100879223D01*
X100603691Y-101004653D01*
X100632585Y-101061359D01*
X100632715Y-101061613D01*
X100753028Y-101227213D01*
X100753034Y-101227219D01*
X100897781Y-101371966D01*
X100976532Y-101429182D01*
X101019198Y-101484511D01*
X101025177Y-101554124D01*
X100992572Y-101615920D01*
X100931734Y-101650277D01*
X100903647Y-101653500D01*
X96574098Y-101653500D01*
X96507059Y-101633815D01*
X96461304Y-101581011D01*
X96451360Y-101511853D01*
X96480385Y-101448297D01*
X96486417Y-101441819D01*
X96620551Y-101307685D01*
X96765520Y-101162716D01*
X96844577Y-101025785D01*
X96885501Y-100873057D01*
X96885501Y-100714942D01*
X96885501Y-100707347D01*
X96885500Y-100707329D01*
X96885500Y-95530446D01*
X96905185Y-95463407D01*
X96936609Y-95430132D01*
X97024728Y-95366111D01*
X97151111Y-95239728D01*
X97256167Y-95095132D01*
X97337309Y-94935881D01*
X97346661Y-94907098D01*
X97392539Y-94765901D01*
X97392539Y-94765900D01*
X97392540Y-94765897D01*
X97420500Y-94589366D01*
X97420500Y-94410634D01*
X97392540Y-94234103D01*
X97392539Y-94234099D01*
X97392539Y-94234098D01*
X97337310Y-94064121D01*
X97337308Y-94064118D01*
X97326931Y-94043750D01*
X97256167Y-93904868D01*
X97151111Y-93760272D01*
X97024728Y-93633889D01*
X96880132Y-93528833D01*
X96720881Y-93447691D01*
X96720878Y-93447689D01*
X96550899Y-93392460D01*
X96417937Y-93371401D01*
X96374366Y-93364500D01*
X96195634Y-93364500D01*
X96152063Y-93371401D01*
X96019101Y-93392460D01*
X96019098Y-93392460D01*
X95849121Y-93447689D01*
X95849118Y-93447691D01*
X95689867Y-93528833D01*
X95545270Y-93633890D01*
X95418890Y-93760270D01*
X95313833Y-93904867D01*
X95232691Y-94064118D01*
X95232689Y-94064121D01*
X95177460Y-94234098D01*
X95177460Y-94234101D01*
X95149500Y-94410634D01*
X95149500Y-94589365D01*
X95177460Y-94765898D01*
X95177460Y-94765901D01*
X95232689Y-94935878D01*
X95232691Y-94935881D01*
X95313833Y-95095132D01*
X95418889Y-95239728D01*
X95545272Y-95366111D01*
X95633388Y-95430131D01*
X95676051Y-95485457D01*
X95684500Y-95530446D01*
X95684500Y-100493901D01*
X95664815Y-100560940D01*
X95648181Y-100581582D01*
X95016082Y-101213681D01*
X94954759Y-101247166D01*
X94928401Y-101250000D01*
X94726110Y-101250000D01*
X94532151Y-101288581D01*
X94532143Y-101288583D01*
X94349426Y-101364267D01*
X94184988Y-101474140D01*
X94184981Y-101474146D01*
X94045146Y-101613981D01*
X94045140Y-101613988D01*
X93935267Y-101778426D01*
X93859583Y-101961143D01*
X93859581Y-101961151D01*
X93821000Y-102155110D01*
X90355500Y-102155110D01*
X90355500Y-93817155D01*
X92610000Y-93817155D01*
X92610000Y-94250000D01*
X93456184Y-94250000D01*
X93440124Y-94266060D01*
X93389964Y-94352939D01*
X93364000Y-94449840D01*
X93364000Y-94550160D01*
X93389964Y-94647061D01*
X93440124Y-94733940D01*
X93456184Y-94750000D01*
X92610000Y-94750000D01*
X92610000Y-95182844D01*
X92616401Y-95242372D01*
X92616403Y-95242379D01*
X92666645Y-95377086D01*
X92666649Y-95377093D01*
X92752809Y-95492187D01*
X92752812Y-95492190D01*
X92867906Y-95578350D01*
X92867913Y-95578354D01*
X93002620Y-95628596D01*
X93002627Y-95628598D01*
X93062155Y-95634999D01*
X93062172Y-95635000D01*
X93495000Y-95635000D01*
X93495000Y-94788816D01*
X93511060Y-94804876D01*
X93597939Y-94855036D01*
X93694840Y-94881000D01*
X93795160Y-94881000D01*
X93892061Y-94855036D01*
X93978940Y-94804876D01*
X93995000Y-94788816D01*
X93995000Y-95635000D01*
X94427828Y-95635000D01*
X94427844Y-95634999D01*
X94487372Y-95628598D01*
X94487379Y-95628596D01*
X94622086Y-95578354D01*
X94622093Y-95578350D01*
X94737187Y-95492190D01*
X94737190Y-95492187D01*
X94823350Y-95377093D01*
X94823354Y-95377086D01*
X94873596Y-95242379D01*
X94873598Y-95242372D01*
X94879999Y-95182844D01*
X94880000Y-95182827D01*
X94880000Y-94750000D01*
X94033816Y-94750000D01*
X94049876Y-94733940D01*
X94100036Y-94647061D01*
X94126000Y-94550160D01*
X94126000Y-94449840D01*
X94100036Y-94352939D01*
X94049876Y-94266060D01*
X94033816Y-94250000D01*
X94880000Y-94250000D01*
X94880000Y-93817172D01*
X94879999Y-93817155D01*
X94873598Y-93757627D01*
X94873596Y-93757620D01*
X94823354Y-93622913D01*
X94823350Y-93622906D01*
X94737190Y-93507812D01*
X94737187Y-93507809D01*
X94622093Y-93421649D01*
X94622086Y-93421645D01*
X94487379Y-93371403D01*
X94487372Y-93371401D01*
X94427844Y-93365000D01*
X93995000Y-93365000D01*
X93995000Y-94211184D01*
X93978940Y-94195124D01*
X93892061Y-94144964D01*
X93795160Y-94119000D01*
X93694840Y-94119000D01*
X93597939Y-94144964D01*
X93511060Y-94195124D01*
X93495000Y-94211184D01*
X93495000Y-93365000D01*
X93062155Y-93365000D01*
X93002627Y-93371401D01*
X93002620Y-93371403D01*
X92867913Y-93421645D01*
X92867906Y-93421649D01*
X92752812Y-93507809D01*
X92752809Y-93507812D01*
X92666649Y-93622906D01*
X92666645Y-93622913D01*
X92616403Y-93757620D01*
X92616401Y-93757627D01*
X92610000Y-93817155D01*
X90355500Y-93817155D01*
X90355500Y-91595756D01*
X90357025Y-91576370D01*
X90365618Y-91522113D01*
X90377603Y-91485226D01*
X90398056Y-91445085D01*
X90420855Y-91413706D01*
X90452706Y-91381855D01*
X90484085Y-91359056D01*
X90524226Y-91338603D01*
X90561113Y-91326618D01*
X90615369Y-91318025D01*
X90634757Y-91316500D01*
X90717710Y-91316500D01*
X199060290Y-91316500D01*
X199143243Y-91316500D01*
X199162630Y-91318025D01*
G37*
G04 #@! TD.AperFunction*
M02*
