M48
; DRILL file {KiCad 9.0.3} date 2025-08-08T01:33:53-0700
; FORMAT={-:-/ absolute / metric / decimal}
; #@! TF.CreationDate,2025-08-08T01:33:53-07:00
; #@! TF.GenerationSoftware,Kicad,Pcbnew,9.0.3
; #@! TF.FileFunction,Plated,1,2,PTH
FMAT,2
METRIC
; #@! TA.AperFunction,Plated,PTH,ViaDrill
T1C0.300
; #@! TA.AperFunction,Plated,PTH,ComponentDrill
T2C0.657
; #@! TA.AperFunction,Plated,PTH,ComponentDrill
T3C0.711
; #@! TA.AperFunction,Plated,PTH,ComponentDrill
T4C0.762
; #@! TA.AperFunction,Plated,PTH,ComponentDrill
T5C0.800
; #@! TA.AperFunction,Plated,PTH,ComponentDrill
T6C0.864
; #@! TA.AperFunction,Plated,PTH,ComponentDrill
T7C0.889
; #@! TA.AperFunction,Plated,PTH,ComponentDrill
T8C0.900
; #@! TA.AperFunction,Plated,PTH,ComponentDrill
T9C0.991
; #@! TA.AperFunction,Plated,PTH,ComponentDrill
T10C1.370
%
G90
G05
T1
X95.173Y-117.287
T2
X94.825Y-102.254
X94.825Y-107.134
T3
X141.638Y-94.5
X143.645Y-94.5
T4
X93.73Y-114.954
X93.745Y-94.5
X96.27Y-114.954
X96.285Y-94.5
T5
X101.325Y-114.634
X101.523Y-94.462
X101.745Y-100.38
X101.745Y-108.0
X103.325Y-114.634
X103.523Y-94.462
X104.285Y-100.38
X104.285Y-108.0
X105.325Y-114.634
X105.523Y-94.462
X106.825Y-100.38
X106.825Y-108.0
X107.325Y-114.634
X107.523Y-94.462
X109.325Y-114.634
X109.365Y-100.38
X109.365Y-108.0
X109.523Y-94.462
X111.325Y-114.634
X111.523Y-94.462
X111.905Y-100.38
X111.905Y-108.0
X113.325Y-114.634
X114.445Y-100.38
X114.445Y-108.0
X115.325Y-114.634
X115.58Y-94.444
X116.985Y-100.38
X116.985Y-108.0
X117.58Y-94.444
X119.525Y-100.38
X119.525Y-108.0
X119.58Y-94.444
X122.065Y-100.38
X122.065Y-108.0
X123.623Y-94.462
X124.605Y-100.38
X124.605Y-108.0
X124.825Y-114.7
X125.623Y-94.462
X126.825Y-114.7
X127.145Y-100.38
X127.145Y-108.0
X127.623Y-94.462
X128.825Y-114.7
X129.623Y-94.462
X129.685Y-100.38
X129.685Y-108.0
X130.825Y-114.7
X131.623Y-94.462
X132.225Y-100.38
X132.225Y-108.0
X132.825Y-114.7
X133.623Y-94.462
X134.765Y-100.38
X134.765Y-108.0
X134.825Y-114.7
X135.623Y-94.462
T6
X139.605Y-114.38
X144.685Y-114.38
T7
X139.57Y-102.0
X139.57Y-107.5
X151.0Y-102.0
X151.0Y-107.5
X176.145Y-105.447
X176.145Y-116.877
X186.463Y-94.126
X188.963Y-94.126
X191.463Y-94.126
T8
X150.605Y-94.88
X150.605Y-113.88
X153.145Y-94.88
X153.145Y-113.88
T10
X176.145Y-94.88
X176.145Y-97.43
X176.145Y-99.98
T9
X183.723Y-104.867G85X183.723Y-102.657
G05
X187.928Y-98.762G85X185.718Y-98.762
G05
X189.923Y-104.867G85X189.923Y-102.657
G05
M30
